<?xml version="1.0" encoding="utf-8"?>
<!-- Generator: Adobe Illustrator 18.0.0, SVG Export Plug-In . SVG Version: 6.00 Build 0)  -->
<!DOCTYPE svg PUBLIC "-//W3C//DTD SVG 1.1//EN" "http://www.w3.org/Graphics/SVG/1.1/DTD/svg11.dtd">
<svg version="1.1" id="Capa_1" xmlns="http://www.w3.org/2000/svg" xmlns:xlink="http://www.w3.org/1999/xlink" x="0px" y="0px"
	 viewBox="0 0 283.5 85" enable-background="new 0 0 283.5 85" xml:space="preserve">
<g>
	<g>
		<g>
			<g>
				<path fill="#4A8FC2" d="M259.7,83.3H23.4c-9.2,0-16.6-7.4-16.6-16.6V18.2c0-9.2,7.4-16.6,16.6-16.6h236.2
					c9.2,0,16.6,7.4,16.6,16.6v48.5C276.2,75.9,268.8,83.3,259.7,83.3z"/>
				<g>
					<path fill="#FFFFFF" d="M92.3,25.2v-1.5h5.3v4.5c-0.8,0.6-1.6,1.1-2.5,1.4c-0.9,0.4-1.8,0.5-2.6,0.5c-1.3,0-2.3-0.3-3.3-0.8
						c-1-0.5-1.8-1.3-2.3-2.3c-0.5-1-0.8-2.1-0.8-3.3c0-1.3,0.3-2.3,0.8-3.4c0.5-1,1.3-1.8,2.1-2.3c0.9-0.5,2-0.8,3.3-0.8
						c0.9,0,1.8,0.1,2.4,0.4c0.8,0.3,1.3,0.8,1.6,1.3s0.8,1.1,0.9,2l-1.5,0.4c-0.1-0.6-0.4-1.1-0.6-1.5s-0.6-0.6-1.1-0.9
						s-1.1-0.4-1.8-0.4c-0.8,0-1.4,0.1-1.9,0.4s-1,0.5-1.3,0.9c-0.4,0.4-0.6,0.8-0.8,1.3c-0.4,0.8-0.5,1.6-0.5,2.5
						c0,1.1,0.3,2,0.6,2.8c0.4,0.8,0.9,1.3,1.6,1.6c0.8,0.4,1.5,0.5,2.3,0.5s1.4-0.1,2-0.4s1.1-0.5,1.5-0.9v-2.3h-3.5V25.2z"/>
					<path fill="#FFFFFF" d="M99.9,30.1V17.8h8.9v1.5h-7.3v3.8h6.8v1.5h-6.8v4.1h7.5v1.5h-9.2V30.1z"/>
					<path fill="#FFFFFF" d="M114.5,30.1V19.2h-4v-1.5h9.8v1.5h-4v10.9H114.5z"/>
					<path fill="#FFFFFF" d="M126.5,30.1V17.8h1.6v12.3H126.5z"/>
					<path fill="#FFFFFF" d="M131,30.1V17.8h1.6l6.5,9.7v-9.7h1.5v12.3H139l-6.5-9.7v9.7H131z"/>
					<path fill="#FFFFFF" d="M147.8,24.1c0-2,0.5-3.6,1.6-4.8c1.1-1.1,2.5-1.8,4.3-1.8c1.1,0,2.1,0.3,3.1,0.8
						c0.9,0.5,1.6,1.3,2.1,2.3c0.5,1,0.8,2.1,0.8,3.3c0,1.3-0.3,2.4-0.8,3.4c-0.5,1-1.3,1.8-2.1,2.3c-0.9,0.5-1.9,0.8-3,0.8
						s-2.1-0.3-3.1-0.9c-0.9-0.5-1.6-1.4-2.1-2.3C147.9,26.2,147.8,25.2,147.8,24.1z M149.4,24.1c0,1.5,0.4,2.6,1.3,3.5
						c0.8,0.9,1.8,1.3,3,1.3s2.3-0.4,3-1.3s1.1-2.1,1.1-3.6c0-1-0.1-1.9-0.5-2.6s-0.9-1.4-1.5-1.8s-1.4-0.6-2.3-0.6
						c-1.1,0-2.1,0.4-3,1.1C149.8,21,149.4,22.4,149.4,24.1z"/>
					<path fill="#FFFFFF" d="M161.6,30.1V17.8h1.6l6.5,9.7v-9.7h1.5v12.3h-1.6l-6.5-9.7v9.7H161.6z"/>
					<path fill="#FFFFFF" stroke="#FFFFFF" stroke-miterlimit="10" d="M85.1,61.1l8.8-22.9h3.3l9.4,22.9h-3.5l-2.6-6.9h-9.7
						l-2.5,6.9H85.1z M91.8,51.7h7.8l-2.4-6.4c-0.8-1.9-1.3-3.5-1.6-4.8c-0.3,1.5-0.8,2.9-1.3,4.4L91.8,51.7z"/>
					<path fill="#FFFFFF" stroke="#FFFFFF" stroke-miterlimit="10" d="M108.7,67.5V44.4h2.5v2.1c0.6-0.9,1.3-1.5,2-1.9
						c0.8-0.4,1.6-0.6,2.8-0.6c1.4,0,2.6,0.4,3.8,1.1c1.1,0.8,1.9,1.8,2.5,3.1c0.5,1.4,0.9,2.8,0.9,4.4c0,1.8-0.3,3.3-0.9,4.6
						c-0.6,1.4-1.5,2.4-2.6,3.1c-1.1,0.8-2.4,1.1-3.6,1.1c-0.9,0-1.8-0.3-2.5-0.6c-0.8-0.4-1.4-0.9-1.9-1.5v8.2h-2.9V67.5z
						 M111.2,52.8c0,2.1,0.4,3.8,1.3,4.8c0.9,1,1.9,1.5,3.1,1.5c1.3,0,2.4-0.5,3.3-1.6c0.9-1,1.4-2.8,1.4-4.9c0-2.1-0.4-3.8-1.3-4.8
						c-0.9-1-1.9-1.6-3.1-1.6c-1.3,0-2.3,0.5-3.1,1.6C111.7,49.1,111.2,50.7,111.2,52.8z"/>
					<path fill="#FFFFFF" stroke="#FFFFFF" stroke-miterlimit="10" d="M126.5,67.5V44.4h2.5v2.1c0.6-0.9,1.3-1.5,2-1.9
						c0.8-0.4,1.6-0.6,2.8-0.6c1.4,0,2.6,0.4,3.8,1.1c1.1,0.8,1.9,1.8,2.5,3.1c0.5,1.4,0.9,2.8,0.9,4.4c0,1.8-0.3,3.3-0.9,4.6
						c-0.6,1.4-1.5,2.4-2.6,3.1c-1.1,0.8-2.4,1.1-3.6,1.1c-0.9,0-1.8-0.3-2.5-0.6c-0.8-0.4-1.4-0.9-1.9-1.5v8.2h-2.9V67.5z
						 M129.1,52.8c0,2.1,0.4,3.8,1.3,4.8c0.9,1,1.9,1.5,3.1,1.5s2.4-0.5,3.3-1.6c0.9-1,1.4-2.8,1.4-4.9c0-2.1-0.4-3.8-1.3-4.8
						s-1.9-1.6-3.1-1.6c-1.3,0-2.3,0.5-3.1,1.6C129.5,49.1,129.1,50.7,129.1,52.8z"/>
					<path fill="#FFFFFF" stroke="#FFFFFF" stroke-miterlimit="10" d="M152.6,53.7l2.9-0.3c0.1,1.1,0.5,2.1,1,2.9
						c0.5,0.8,1.3,1.4,2.3,1.8c1,0.5,2.3,0.6,3.5,0.6c1.1,0,2.1-0.1,3-0.5c0.9-0.4,1.5-0.9,2-1.4c0.4-0.6,0.6-1.3,0.6-2
						s-0.3-1.4-0.6-1.9c-0.4-0.5-1.1-1-2-1.4c-0.6-0.3-2-0.6-4.1-1.1s-3.6-1-4.4-1.4c-1.1-0.6-1.9-1.3-2.5-2.1
						c-0.5-0.9-0.8-1.8-0.8-2.9c0-1.1,0.4-2.3,1-3.3s1.6-1.8,2.9-2.3c1.3-0.5,2.6-0.8,4.3-0.8c1.8,0,3.3,0.3,4.5,0.9
						c1.3,0.6,2.3,1.4,3,2.4c0.8,1,1.1,2.3,1.1,3.6l-2.9,0.3c-0.1-1.5-0.6-2.5-1.6-3.3c-0.9-0.8-2.3-1.1-4-1.1c-1.9,0-3.1,0.4-4,1
						c-0.9,0.6-1.3,1.5-1.3,2.4c0,0.9,0.3,1.5,0.9,2c0.6,0.5,2.1,1.1,4.6,1.6c2.5,0.5,4.1,1,5.1,1.5c1.4,0.6,2.4,1.4,3,2.4
						c0.6,1,1,2,1,3.3s-0.4,2.4-1,3.5c-0.8,1.1-1.8,1.9-3,2.5c-1.3,0.6-2.8,0.9-4.4,0.9c-2.1,0-3.8-0.3-5.3-0.9
						c-1.4-0.6-2.5-1.5-3.3-2.8C153.1,56.6,152.7,55.2,152.6,53.7z"/>
					<path fill="#FFFFFF" stroke="#FFFFFF" stroke-miterlimit="10" d="M180.8,58.6l0.4,2.5c-0.8,0.1-1.5,0.3-2.1,0.3
						c-1,0-1.8-0.1-2.4-0.5c-0.5-0.4-1-0.8-1.1-1.3c-0.3-0.5-0.4-1.6-0.4-3.4v-9.5h-2v-2.1h2v-4.1l2.8-1.6v5.8h2.9v2.1h-2.9v9.8
						c0,0.8,0,1.4,0.1,1.5c0.1,0.3,0.3,0.4,0.5,0.5c0.3,0.1,0.5,0.3,1,0.3C179.9,58.7,180.3,58.6,180.8,58.6z"/>
					<path fill="#FFFFFF" stroke="#FFFFFF" stroke-miterlimit="10" d="M182.5,52.7c0-3.1,0.9-5.4,2.5-6.9c1.4-1.3,3.1-1.9,5.3-1.9
						c2.3,0,4.1,0.8,5.6,2.3c1.5,1.5,2.1,3.5,2.1,6.3c0,2.1-0.4,3.9-1,5c-0.6,1.3-1.6,2.1-2.8,2.9c-1.3,0.6-2.5,1-4,1
						c-2.4,0-4.3-0.8-5.6-2.3C183.3,57.7,182.5,55.6,182.5,52.7z M185.4,52.7c0,2.1,0.5,3.8,1.4,4.8c0.9,1,2.1,1.6,3.5,1.6
						c1.4,0,2.5-0.5,3.5-1.6c0.9-1,1.4-2.6,1.4-4.9c0-2-0.5-3.6-1.4-4.6c-0.9-1-2.1-1.6-3.5-1.6c-1.4,0-2.6,0.5-3.5,1.6
						C185.9,49.1,185.4,50.6,185.4,52.7z"/>
					<path fill="#FFFFFF" stroke="#FFFFFF" stroke-miterlimit="10" d="M201.5,61.1V44.4h2.5v2.5c0.6-1.1,1.3-2,1.8-2.4
						c0.5-0.4,1.1-0.5,1.8-0.5c1,0,1.9,0.3,2.9,0.9l-1,2.6c-0.6-0.4-1.4-0.6-2-0.6s-1.1,0.1-1.6,0.5c-0.5,0.4-0.9,0.9-1,1.5
						c-0.3,1-0.5,2.1-0.5,3.3v8.7h-2.8V61.1z"/>
					<path fill="#FFFFFF" stroke="#FFFFFF" stroke-miterlimit="10" d="M223.6,55.7l2.9,0.4c-0.5,1.8-1.3,3-2.5,4
						c-1.3,0.9-2.9,1.4-4.8,1.4c-2.4,0-4.4-0.8-5.8-2.3c-1.4-1.5-2.1-3.6-2.1-6.3c0-2.8,0.8-5,2.1-6.5c1.4-1.5,3.3-2.3,5.6-2.3
						c2.3,0,4,0.8,5.4,2.3c1.4,1.5,2.1,3.6,2.1,6.4c0,0.1,0,0.4,0,0.8h-12.4c0.1,1.9,0.6,3.3,1.5,4.1c0.9,1,2.1,1.5,3.5,1.5
						c1,0,1.9-0.3,2.6-0.8C222.5,57.7,223.2,57,223.6,55.7z M214.3,51.2h9.3c-0.1-1.4-0.5-2.5-1-3.1c-0.9-1.1-2-1.6-3.5-1.6
						c-1.3,0-2.4,0.4-3.3,1.3C214.9,48.6,214.4,49.7,214.3,51.2z"/>
				</g>
				<g>
					<path fill="#FFFFFF" stroke="#FFFFFF" stroke-miterlimit="10" d="M68.4,34.3c0,0-8.3,4.8-4.6,14.4c0.9,2.3,3,4.5,6,5.8
						c0,0-0.5,1.6-1.5,3.9c-1,2.3-2.9,5.1-5.1,7.5c0,0-1.6,1.8-3.5,2.1c-1.1,0.3-2.5,0.3-4.3-0.4c0,0-2.3-1-3.6-1.4
						c-1.6-0.4-3.8-0.1-4.8,0.3c-1.1,0.4-3.3,1.3-3.3,1.3S40.9,69.1,38,67c-2.8-2-5.9-7.1-6.5-8.3c-0.4-0.9-2.5-4.5-3.4-10.3
						c-0.3-1.6-0.4-3.5-0.3-5.5c0.3-5.6,3.3-9.4,5.3-11c1-0.8,1.8-1.1,1.9-1.3c0.6-0.3,4.4-2.4,8.8-0.9c3.3,1.1,4.3,1.8,5.4,1.8
						c0.3,0,0.5-0.1,0.8-0.1c1-0.3,1.9-0.6,1.9-0.6c0.6-0.3,1.4-0.6,2.1-0.8c0.6-0.3,1.3-0.4,2-0.5c0.4-0.1,0.6-0.1,1-0.1
						c0.4,0,0.8-0.1,1.1-0.1c0.8,0,1.4,0,2,0.1c0.6,0.1,1.3,0.3,1.9,0.4c0.5,0.1,1.1,0.4,1.6,0.6c1.3,0.5,2.5,1.4,3.6,2.8L68.4,34.3
						z"/>
					<path fill="#FFFFFF" stroke="#FFFFFF" stroke-miterlimit="10" d="M59,16.7c0,0-2,0-4.5,1.4c-2.8,1.5-6.5,5.5-5.9,10.4
						c0,0,1.3,0.4,3.1-0.4c0.3-0.1,0.4-0.1,0.6-0.3c2.6-1.1,5-3.6,6-6.6C59,19.8,59.3,18.3,59,16.7z"/>
				</g>
			</g>
		</g>
	</g>
</g>
</svg>
