<?xml version="1.0" encoding="utf-8"?>
<!-- Generator: Adobe Illustrator 18.0.0, SVG Export Plug-In . SVG Version: 6.00 Build 0)  -->
<!DOCTYPE svg PUBLIC "-//W3C//DTD SVG 1.1//EN" "http://www.w3.org/Graphics/SVG/1.1/DTD/svg11.dtd">
<svg version="1.1" id="Capa_1" xmlns="http://www.w3.org/2000/svg" xmlns:xlink="http://www.w3.org/1999/xlink" x="0px" y="0px"
	 viewBox="0 0 269.3 82.2" enable-background="new 0 0 269.3 82.2" xml:space="preserve">
<g>
	<g>
		<g>
			<g>
				<path fill="#4A8FC2" d="M252.7,81.9h-236c-9.2,0-16.6-7.4-16.6-16.6V16.9c0-9.2,7.4-16.6,16.6-16.6h236
					c9.2,0,16.6,7.4,16.6,16.6v48.4C269.2,74.5,261.8,81.9,252.7,81.9z"/>
				<g>
					<path fill="#FFFFFF" d="M85.5,23.9v-1.5h5.3v4.5c-0.8,0.6-1.6,1.1-2.5,1.4c-0.9,0.4-1.8,0.5-2.6,0.5c-1.3,0-2.3-0.3-3.3-0.8
						c-1-0.5-1.8-1.3-2.3-2.3c-0.5-1-0.8-2.1-0.8-3.3c0-1.3,0.3-2.3,0.8-3.4c0.5-1,1.3-1.8,2.1-2.3c0.9-0.5,2-0.8,3.3-0.8
						c0.9,0,1.8,0.1,2.4,0.4c0.8,0.3,1.3,0.8,1.6,1.3s0.8,1.1,0.9,2L88.9,20c-0.1-0.6-0.4-1.1-0.6-1.5c-0.2-0.4-0.6-0.6-1.1-0.9
						c-0.5-0.3-1.1-0.4-1.8-0.4c-0.8,0-1.4,0.1-1.9,0.4c-0.5,0.3-1,0.5-1.3,0.9c-0.4,0.4-0.6,0.8-0.8,1.3c-0.4,0.8-0.5,1.6-0.5,2.5
						c0,1.1,0.3,2,0.6,2.8c0.4,0.8,0.9,1.3,1.6,1.6c0.8,0.4,1.5,0.5,2.3,0.5s1.4-0.1,2-0.4c0.6-0.3,1.1-0.5,1.5-0.9v-2.3h-3.5
						L85.5,23.9L85.5,23.9z"/>
					<path fill="#FFFFFF" d="M93.1,28.8V16.5h8.9V18h-7.3v3.8h6.8v1.5h-6.8v4.1h7.5v1.5L93.1,28.8L93.1,28.8L93.1,28.8z"/>
					<path fill="#FFFFFF" d="M107.7,28.8V17.9h-4v-1.5h9.8v1.5h-4v10.9H107.7z"/>
					<path fill="#FFFFFF" d="M119.7,28.8V16.5h1.6v12.3C121.3,28.8,119.7,28.8,119.7,28.8z"/>
					<path fill="#FFFFFF" d="M124.2,28.8V16.5h1.6l6.5,9.7v-9.7h1.5v12.3h-1.6l-6.5-9.7v9.7C125.7,28.8,124.2,28.8,124.2,28.8z"/>
					<path fill="#FFFFFF" d="M140.9,22.8c0-2,0.5-3.6,1.6-4.8c1.1-1.1,2.5-1.8,4.3-1.8c1.1,0,2.1,0.3,3.1,0.8
						c0.9,0.5,1.6,1.3,2.1,2.3s0.8,2.1,0.8,3.3c0,1.3-0.3,2.4-0.8,3.4c-0.5,1-1.3,1.8-2.1,2.3c-0.9,0.5-1.9,0.8-3,0.8
						c-1.1,0-2.1-0.3-3.1-0.9c-0.9-0.5-1.6-1.4-2.1-2.3C141,24.9,140.9,23.9,140.9,22.8z M142.5,22.8c0,1.5,0.4,2.6,1.3,3.5
						c0.8,0.9,1.8,1.3,3,1.3c1.2,0,2.3-0.4,3-1.3c0.7-0.9,1.1-2.1,1.1-3.6c0-1-0.1-1.9-0.5-2.6c-0.4-0.7-0.9-1.4-1.5-1.8
						s-1.4-0.6-2.3-0.6c-1.1,0-2.1,0.4-3,1.1C142.9,19.7,142.5,21.1,142.5,22.8z"/>
					<path fill="#FFFFFF" d="M154.7,28.8V16.5h1.6l6.5,9.7v-9.7h1.5v12.3h-1.6l-6.5-9.7v9.7C156.2,28.8,154.7,28.8,154.7,28.8z"/>
					<path fill="#FFFFFF" stroke="#FFFFFF" stroke-miterlimit="10" d="M78.3,59.7l8.8-22.9h3.3l9.4,22.9h-3.5l-2.6-6.9H84l-2.5,6.9
						H78.3z M85,50.3h7.8l-2.4-6.4c-0.8-1.9-1.3-3.5-1.6-4.8c-0.3,1.5-0.8,2.9-1.3,4.4L85,50.3z"/>
					<path fill="#FFFFFF" stroke="#FFFFFF" stroke-miterlimit="10" d="M101.9,66.1V43h2.5v2.1c0.6-0.9,1.3-1.5,2-1.9
						c0.8-0.4,1.6-0.6,2.8-0.6c1.4,0,2.6,0.4,3.8,1.1c1.1,0.8,1.9,1.8,2.5,3.1c0.5,1.4,0.9,2.8,0.9,4.4c0,1.8-0.3,3.3-0.9,4.6
						c-0.6,1.4-1.5,2.4-2.6,3.1c-1.1,0.8-2.4,1.1-3.6,1.1c-0.9,0-1.8-0.3-2.5-0.6c-0.8-0.4-1.4-0.9-1.9-1.5v8.2L101.9,66.1
						L101.9,66.1L101.9,66.1z M104.4,51.4c0,2.1,0.4,3.8,1.3,4.8c0.9,1,1.9,1.5,3.1,1.5c1.3,0,2.4-0.5,3.3-1.6
						c0.9-1,1.4-2.8,1.4-4.9c0-2.1-0.4-3.8-1.3-4.8c-0.9-1-1.9-1.6-3.1-1.6c-1.3,0-2.3,0.5-3.1,1.6
						C104.9,47.7,104.4,49.3,104.4,51.4z"/>
					<path fill="#FFFFFF" stroke="#FFFFFF" stroke-miterlimit="10" d="M119.7,66.1V43h2.5v2.1c0.6-0.9,1.3-1.5,2-1.9
						c0.8-0.4,1.6-0.6,2.8-0.6c1.4,0,2.6,0.4,3.8,1.1c1.1,0.8,1.9,1.8,2.5,3.1c0.5,1.4,0.9,2.8,0.9,4.4c0,1.8-0.3,3.3-0.9,4.6
						c-0.6,1.4-1.5,2.4-2.6,3.1c-1.1,0.8-2.4,1.1-3.6,1.1c-0.9,0-1.8-0.3-2.5-0.6c-0.8-0.4-1.4-0.9-1.9-1.5v8.2L119.7,66.1
						L119.7,66.1L119.7,66.1z M122.3,51.4c0,2.1,0.4,3.8,1.3,4.8c0.9,1,1.9,1.5,3.1,1.5c1.2,0,2.4-0.5,3.3-1.6
						c0.9-1,1.4-2.8,1.4-4.9c0-2.1-0.4-3.8-1.3-4.8s-1.9-1.6-3.1-1.6c-1.3,0-2.3,0.5-3.1,1.6C122.7,47.7,122.3,49.3,122.3,51.4z"/>
					<path fill="#FFFFFF" stroke="#FFFFFF" stroke-miterlimit="10" d="M145.7,52.3l2.9-0.3c0.1,1.1,0.5,2.1,1,2.9
						c0.5,0.8,1.3,1.4,2.3,1.8c1,0.5,2.3,0.6,3.5,0.6c1.1,0,2.1-0.1,3-0.5c0.9-0.4,1.5-0.9,2-1.4c0.4-0.6,0.6-1.3,0.6-2
						c0-0.7-0.3-1.4-0.6-1.9c-0.4-0.5-1.1-1-2-1.4c-0.6-0.3-2-0.6-4.1-1.1c-2.1-0.5-3.6-1-4.4-1.4c-1.1-0.6-1.9-1.3-2.5-2.1
						c-0.5-0.9-0.8-1.8-0.8-2.9c0-1.1,0.4-2.3,1-3.3c0.6-1,1.6-1.8,2.9-2.3c1.3-0.5,2.6-0.8,4.3-0.8c1.8,0,3.3,0.3,4.5,0.9
						c1.3,0.6,2.3,1.4,3,2.4c0.8,1,1.1,2.3,1.1,3.6l-2.9,0.3c-0.1-1.5-0.6-2.5-1.6-3.3c-0.9-0.8-2.3-1.1-4-1.1c-1.9,0-3.1,0.4-4,1
						c-0.9,0.6-1.3,1.5-1.3,2.4c0,0.9,0.3,1.5,0.9,2c0.6,0.5,2.1,1.1,4.6,1.6s4.1,1,5.1,1.5c1.4,0.6,2.4,1.4,3,2.4c0.6,1,1,2,1,3.3
						s-0.4,2.4-1,3.5c-0.8,1.1-1.8,1.9-3,2.5c-1.3,0.6-2.8,0.9-4.4,0.9c-2.1,0-3.8-0.3-5.3-0.9c-1.4-0.6-2.5-1.5-3.3-2.8
						C146.2,55.2,145.8,53.8,145.7,52.3z"/>
					<path fill="#FFFFFF" stroke="#FFFFFF" stroke-miterlimit="10" d="M173.9,57.2l0.4,2.5c-0.8,0.1-1.5,0.3-2.1,0.3
						c-1,0-1.8-0.1-2.4-0.5c-0.5-0.4-1-0.8-1.1-1.3c-0.3-0.5-0.4-1.6-0.4-3.4v-9.5h-2v-2.1h2v-4.1l2.8-1.6v5.8h2.9v2.1h-2.9v9.8
						c0,0.8,0,1.4,0.1,1.5c0.1,0.3,0.3,0.4,0.5,0.5c0.3,0.1,0.5,0.3,1,0.3C173,57.3,173.4,57.2,173.9,57.2z"/>
					<path fill="#FFFFFF" stroke="#FFFFFF" stroke-miterlimit="10" d="M175.6,51.3c0-3.1,0.9-5.4,2.5-6.9c1.4-1.3,3.1-1.9,5.3-1.9
						c2.3,0,4.1,0.8,5.6,2.3s2.1,3.5,2.1,6.3c0,2.1-0.4,3.9-1,5c-0.6,1.3-1.6,2.1-2.8,2.9c-1.3,0.6-2.5,1-4,1
						c-2.4,0-4.3-0.8-5.6-2.3C176.4,56.3,175.6,54.2,175.6,51.3z M178.5,51.3c0,2.1,0.5,3.8,1.4,4.8c0.9,1,2.1,1.6,3.5,1.6
						s2.5-0.5,3.5-1.6c0.9-1,1.4-2.6,1.4-4.9c0-2-0.5-3.6-1.4-4.6c-0.9-1-2.1-1.6-3.5-1.6s-2.6,0.5-3.5,1.6
						C179,47.7,178.5,49.2,178.5,51.3z"/>
					<path fill="#FFFFFF" stroke="#FFFFFF" stroke-miterlimit="10" d="M194.6,59.7V43h2.5v2.5c0.6-1.1,1.3-2,1.8-2.4
						s1.1-0.5,1.8-0.5c1,0,1.9,0.3,2.9,0.9l-1,2.6c-0.6-0.4-1.4-0.6-2-0.6s-1.1,0.1-1.6,0.5s-0.9,0.9-1,1.5c-0.3,1-0.5,2.1-0.5,3.3
						v8.7h-2.8L194.6,59.7L194.6,59.7z"/>
					<path fill="#FFFFFF" stroke="#FFFFFF" stroke-miterlimit="10" d="M216.7,54.3l2.9,0.4c-0.5,1.8-1.3,3-2.5,4
						c-1.3,0.9-2.9,1.4-4.8,1.4c-2.4,0-4.4-0.8-5.8-2.3c-1.4-1.5-2.1-3.6-2.1-6.3c0-2.8,0.8-5,2.1-6.5c1.4-1.5,3.3-2.3,5.6-2.3
						c2.3,0,4,0.8,5.4,2.3s2.1,3.6,2.1,6.4c0,0.1,0,0.4,0,0.8h-12.4c0.1,1.9,0.6,3.3,1.5,4.1c0.9,1,2.1,1.5,3.5,1.5
						c1,0,1.9-0.3,2.6-0.8C215.6,56.3,216.3,55.6,216.7,54.3z M207.4,49.8h9.3c-0.1-1.4-0.5-2.5-1-3.1c-0.9-1.1-2-1.6-3.5-1.6
						c-1.3,0-2.4,0.4-3.3,1.3C208,47.2,207.5,48.3,207.4,49.8z"/>
				</g>
				<g>
					<path fill="#FFFFFF" stroke="#FFFFFF" stroke-miterlimit="10" d="M61.6,33c0,0-8.3,4.8-4.6,14.4c0.9,2.3,3,4.5,6,5.8
						c0,0-0.5,1.6-1.5,3.9c-1,2.3-2.9,5.1-5.1,7.5c0,0-1.6,1.8-3.5,2.1c-1.1,0.3-2.5,0.3-4.3-0.4c0,0-2.3-1-3.6-1.4
						c-1.6-0.4-3.8-0.1-4.8,0.3c-1.1,0.4-3.3,1.3-3.3,1.3s-2.8,1.3-5.7-0.8c-2.8-2-5.9-7.1-6.5-8.3c-0.4-0.9-2.5-4.5-3.4-10.3
						c-0.3-1.6-0.4-3.5-0.3-5.5c0.3-5.6,3.3-9.4,5.3-11c1-0.8,1.8-1.1,1.9-1.3c0.6-0.3,4.4-2.4,8.8-0.9c3.3,1.1,4.3,1.8,5.4,1.8
						c0.3,0,0.5-0.1,0.8-0.1c1-0.3,1.9-0.6,1.9-0.6c0.6-0.3,1.4-0.6,2.1-0.8c0.6-0.3,1.3-0.4,2-0.5c0.4-0.1,0.6-0.1,1-0.1
						S51,28,51.3,28c0.8,0,1.4,0,2,0.1c0.6,0.1,1.3,0.3,1.9,0.4c0.5,0.1,1.1,0.4,1.6,0.6c1.3,0.5,2.5,1.4,3.6,2.8L61.6,33z"/>
					<path fill="#FFFFFF" stroke="#FFFFFF" stroke-miterlimit="10" d="M52.2,15.4c0,0-2,0-4.5,1.4c-2.8,1.5-6.5,5.5-5.9,10.4
						c0,0,1.3,0.4,3.1-0.4c0.3-0.1,0.4-0.1,0.6-0.3c2.6-1.1,5-3.6,6-6.6C52.2,18.5,52.5,17,52.2,15.4z"/>
				</g>
			</g>
		</g>
	</g>
</g>
</svg>
