<?xml version="1.0" encoding="utf-8"?>
<!-- Generator: Adobe Illustrator 18.0.0, SVG Export Plug-In . SVG Version: 6.00 Build 0)  -->
<!DOCTYPE svg PUBLIC "-//W3C//DTD SVG 1.1//EN" "http://www.w3.org/Graphics/SVG/1.1/DTD/svg11.dtd">
<svg version="1.1" id="Capa_1" xmlns="http://www.w3.org/2000/svg" xmlns:xlink="http://www.w3.org/1999/xlink" x="0px" y="0px"
	 viewBox="0 0 283.5 85" enable-background="new 0 0 283.5 85" xml:space="preserve">
<g>
	<g>
		<g id="XMLID_1_">
			<g>
				<path fill="#FFFFFF" d="M249.7,61.2l-6.2-16.4h3l3.4,9.5c0.5,1.2,0.9,2.5,1.2,3.9c0.4-1.2,0.7-2.5,1.1-3.7l3.5-9.6h2.7
					l-6.2,16.7c-0.6,1.7-1.2,3-1.6,3.7c-0.5,0.9-1.1,1.6-1.7,2c-0.6,0.4-1.4,0.6-2.2,0.6c-0.5,0-1-0.1-1.7-0.4l-0.3-2.6
					c0.6,0.1,1.1,0.3,1.6,0.3c0.6,0,1.1-0.1,1.5-0.3c0.4-0.2,0.6-0.5,0.9-0.9c0.1-0.2,0.5-1,0.9-2.1
					C249.5,61.7,249.6,61.4,249.7,61.2z"/>
				<path fill="#FFFFFF" d="M226.4,56.7c0-0.7,0.1-1.5,0.5-2.2c0.4-0.6,0.9-1.2,1.5-1.6c0.6-0.4,1.2-0.7,2-0.9
					c0.5-0.1,1.4-0.2,2.5-0.4c2.2-0.2,3.9-0.6,5-1c0-0.4,0-0.6,0-0.7c0-1.1-0.2-2-0.7-2.4c-0.8-0.6-1.7-1-3.1-1
					c-1.4,0-2.2,0.2-2.9,0.7c-0.6,0.5-1.1,1.2-1.4,2.5l-2.7-0.4c0.3-1.1,0.6-2.1,1.2-2.9s1.4-1.2,2.5-1.6c1.1-0.4,2.4-0.6,3.7-0.6
					c1.4,0,2.5,0.1,3.4,0.5c0.9,0.4,1.5,0.8,2,1.2c0.4,0.5,0.7,1.1,0.9,1.9c0.1,0.5,0.1,1.4,0.1,2.6v3.7c0,2.6,0,4.2,0.1,4.9
					c0.1,0.8,0.4,1.4,0.7,2h-2.9c-0.5-0.5-0.6-1.1-0.8-2c-1,0.9-2,1.5-3,1.9c-1,0.4-2,0.5-3.1,0.5c-1.7,0-3.2-0.5-4.1-1.4
					C226.9,59.2,226.4,58.1,226.4,56.7z M229.9,55.2c-0.2,0.4-0.4,0.9-0.4,1.4c0,0.8,0.2,1.4,0.9,1.9s1.4,0.8,2.5,0.8
					c1.1,0,2-0.3,2.9-0.8c0.9-0.5,1.5-1.1,1.9-1.9c0.2-0.6,0.5-1.5,0.5-2.7v-1h-0.2c-1,0.4-2.5,0.8-4.5,1c-1.1,0.1-2,0.4-2.4,0.5
					C230.5,54.6,230.2,54.8,229.9,55.2z"/>
				<path fill="#4A8FC2" d="M229.5,56.6c0-0.5,0.1-1,0.4-1.4c0.2-0.4,0.6-0.6,1.1-0.9c0.4-0.1,1.2-0.4,2.4-0.5c2-0.2,3.5-0.6,4.5-1
					h0.2v1c0,1.2-0.2,2.1-0.5,2.7c-0.4,0.8-1,1.4-1.9,1.9c-0.9,0.5-1.7,0.8-2.9,0.8c-1.1,0-1.9-0.3-2.5-0.8S229.5,57.3,229.5,56.6z"
					/>
				<rect x="220.3" y="38.5" fill="#FFFFFF" width="2.7" height="22.7"/>
				<path fill="#4A8FC2" d="M213.1,42.6c0.5,0.7,0.8,1.5,0.8,2.5c0,1.2-0.4,2.2-1.2,3c-0.7,0.7-2.1,1.1-4.1,1.1h-5.9V41h5.9
					c1.2,0,2.2,0.1,2.7,0.2C212,41.5,212.6,42,213.1,42.6z"/>
				<path fill="#FFFFFF" d="M199.7,61.2V38.5h8.6c1.5,0,2.6,0.1,3.5,0.2c1.1,0.1,2,0.5,2.7,1c0.7,0.5,1.4,1.2,1.9,2.2
					c0.5,1,0.7,2,0.7,3.1c0,1.9-0.6,3.6-1.9,4.9c-1.2,1.4-3.5,2-6.6,2h-6v9.2H199.7z M213.9,45.1c0-1-0.2-1.7-0.8-2.5
					c-0.5-0.6-1.1-1.1-1.9-1.4c-0.5-0.1-1.5-0.2-2.7-0.2h-5.9v8.2h5.9c2,0,3.4-0.4,4.1-1.1C213.5,47.4,213.9,46.4,213.9,45.1z"/>
				<path fill="#FFFFFF" d="M174,59.2c-1.4-1.5-2.1-3.6-2.1-6.2c0-2.7,0.8-4.9,2.1-6.5c1.4-1.5,3.2-2.2,5.5-2.2s4,0.7,5.4,2.2
					c1.4,1.5,2.1,3.6,2.1,6.4c0,0.1,0,0.4,0,0.8h-12.2c0.1,1.7,0.6,3.2,1.5,4.1c0.9,1,2.1,1.5,3.5,1.5c1,0,1.9-0.3,2.6-0.8
					c0.8-0.6,1.4-1.4,1.7-2.6l2.9,0.4c-0.5,1.6-1.2,3-2.5,3.9c-1.2,0.9-2.7,1.4-4.7,1.4C177.4,61.4,175.4,60.7,174,59.2z M175,51.3
					h9.2c-0.1-1.4-0.5-2.4-1-3.1c-0.9-1.1-2-1.6-3.5-1.6c-1.2,0-2.4,0.4-3.2,1.2C175.5,48.7,175.1,50,175,51.3z"/>
				<path fill="#4A8FC2" d="M184.2,51.3H175c0.1-1.4,0.5-2.6,1.5-3.5c0.9-0.9,2-1.2,3.2-1.2c1.5,0,2.6,0.5,3.5,1.6
					C183.7,49,184.1,50,184.2,51.3z"/>
				<rect x="165.8" y="38.5" fill="#FFFFFF" width="2.7" height="22.7"/>
				<polygon fill="#FFFFFF" points="163.4,18.6 169.8,28.2 169.8,18.6 171.3,18.6 171.3,30.7 169.6,30.7 163.3,21.1 163.3,30.7 
					161.8,30.7 161.8,18.6 				"/>
				<path fill="#FFFFFF" d="M161.8,44.6v14.2c0,2.6-0.2,4.4-0.7,5.5c-0.5,1.1-1.4,1.9-2.5,2.5c-1.1,0.6-2.5,0.9-4.1,0.9
					c-2,0-3.5-0.5-4.7-1.4c-1.5-0.7-2-2-2-3.7l2.7,0.4c0.1,0.9,0.4,1.5,1,1.9c0.7,0.5,1.6,0.8,2.9,0.8c1.2,0,2.2-0.2,3-0.8
					c0.7-0.5,1.1-1.2,1.4-2.1c0.1-0.6,0.2-1.7,0.2-3.6c-1.2,1.4-2.7,2.1-4.5,2.1c-2.2,0-4-0.9-5.2-2.5c-1.2-1.6-1.9-3.6-1.9-5.9
					c0-1.6,0.2-3,0.9-4.4s1.4-2.4,2.5-3.1c1.1-0.7,2.4-1.1,3.7-1.1c2,0,3.5,0.7,4.7,2.4v-2H161.8z M157.8,57.3
					c0.9-1,1.2-2.5,1.2-4.6c0-2-0.5-3.5-1.4-4.5c-0.9-1-2-1.5-3.2-1.5c-1.2,0-2.2,0.5-3.1,1.5c-0.9,1-1.2,2.4-1.2,4.4
					c0,2.1,0.4,3.7,1.2,4.7c0.9,1,1.9,1.5,3.2,1.5C155.8,58.8,156.9,58.3,157.8,57.3z"/>
				<path fill="#4A8FC2" d="M159.1,52.7c0,2.1-0.4,3.6-1.2,4.6c-0.9,1-2,1.5-3.2,1.5c-1.4,0-2.4-0.5-3.2-1.5c-0.9-1-1.2-2.6-1.2-4.7
					c0-2,0.4-3.4,1.2-4.4c0.9-1,1.9-1.5,3.1-1.5c1.2,0,2.4,0.5,3.2,1.5C158.6,49.2,159.1,50.7,159.1,52.7z"/>
				<path fill="#4A8FC2" d="M157.4,21.9c0.4,0.8,0.5,1.6,0.5,2.6c0,1.5-0.4,2.7-1.1,3.6c-0.7,0.9-1.7,1.2-3,1.2
					c-1.2,0-2.2-0.4-3-1.2c-0.7-0.9-1.1-2-1.1-3.5c0-1.7,0.4-3.1,1.1-4c0.9-0.8,1.9-1.1,3-1.1c0.7,0,1.5,0.2,2.1,0.6
					C156.6,20.6,157.1,21.2,157.4,21.9z"/>
				<path fill="#FFFFFF" d="M153.9,30.8c-1.1,0-2.1-0.2-3.1-0.9c-0.9-0.5-1.6-1.2-2-2.2c-0.5-0.9-0.7-1.9-0.7-3c0-2,0.5-3.6,1.6-4.7
					c1.1-1.1,2.5-1.7,4.2-1.7c1.1,0,2.1,0.2,3,0.7c0.9,0.5,1.6,1.2,2.1,2.2c0.5,1,0.7,2,0.7,3.2c0,1.2-0.2,2.4-0.7,3.4
					c-0.5,1-1.2,1.7-2.1,2.2C156.1,30.5,155.1,30.8,153.9,30.8z M155.9,20.2c-0.6-0.4-1.4-0.6-2.1-0.6c-1.1,0-2.1,0.4-3,1.1
					c-0.7,0.9-1.1,2.2-1.1,4c0,1.5,0.4,2.6,1.1,3.5c0.8,0.9,1.7,1.2,3,1.2c1.2,0,2.2-0.4,3-1.2c0.8-0.9,1.1-2.1,1.1-3.6
					c0-1-0.1-1.9-0.5-2.6C157.1,21.2,156.6,20.6,155.9,20.2z"/>
				<path fill="#FFFFFF" d="M132.5,53c0,2.1,0.5,3.7,1.4,4.7c0.9,1,2.1,1.6,3.5,1.6c1.4,0,2.5-0.5,3.5-1.6c0.9-1,1.4-2.6,1.4-4.9
					c0-2-0.5-3.6-1.4-4.6c-0.9-1-2.1-1.6-3.5-1.6c-1.4,0-2.5,0.5-3.5,1.6C132.9,49.2,132.5,50.8,132.5,53z M144.9,52.7
					c0,2.1-0.4,3.7-1,5c-0.6,1.2-1.5,2.1-2.7,2.9c-1.2,0.6-2.5,1-4,1c-2.2,0-4.1-0.8-5.6-2.2c-1.2-1.5-1.9-3.6-1.9-6.4
					c0-3,0.9-5.2,2.5-6.7c1.4-1.2,3.1-1.9,5.1-1.9c2.2,0,4.1,0.7,5.5,2.2C144.1,48.1,144.9,50.1,144.9,52.7z"/>
				<path fill="#4A8FC2" d="M133.9,57.7c-0.9-1-1.4-2.6-1.4-4.7s0.4-3.7,1.4-4.7c1-1.1,2.1-1.6,3.5-1.6c1.4,0,2.6,0.6,3.5,1.6
					c0.9,1,1.4,2.6,1.4,4.6c0,2.2-0.5,3.9-1.4,4.9c-1,1.1-2.1,1.6-3.5,1.6C136,59.3,134.8,58.7,133.9,57.7z"/>
				<polygon fill="#FFFFFF" points="131.6,30.7 131.6,18.6 133.3,18.6 139.6,28.2 139.6,18.6 141.1,18.6 141.1,30.7 139.5,30.7 
					133.1,21.1 133.1,30.7 				"/>
				<rect x="127.2" y="18.6" fill="#FFFFFF" width="1.6" height="12.1"/>
				<path fill="#FFFFFF" d="M114.8,53c0,2.1,0.5,3.7,1.4,4.7c0.9,1,2.1,1.6,3.5,1.6c1.4,0,2.5-0.5,3.5-1.6c0.9-1,1.4-2.6,1.4-4.9
					c0-2-0.5-3.6-1.4-4.6c-0.9-1-2.1-1.6-3.5-1.6c-1.4,0-2.5,0.5-3.5,1.6C115.3,49.2,114.8,50.8,114.8,53z M127.2,52.7
					c0,2.1-0.4,3.7-1,5c-0.6,1.2-1.5,2.1-2.7,2.9c-1.2,0.6-2.5,1-4,1c-2.2,0-4.1-0.8-5.6-2.2c-1.1-1.5-1.9-3.6-1.9-6.4
					c0-3,0.9-5.2,2.5-6.7c1.4-1.2,3.1-1.9,5.1-1.9c2.2,0,4.1,0.7,5.5,2.2C126.4,48.1,127.2,50.1,127.2,52.7z"/>
				<path fill="#4A8FC2" d="M116.2,57.7c-0.9-1-1.4-2.6-1.4-4.7s0.5-3.7,1.4-4.7c1-1.1,2.1-1.6,3.5-1.6c1.4,0,2.6,0.6,3.5,1.6
					c0.9,1,1.4,2.6,1.4,4.6c0,2.2-0.5,3.9-1.4,4.9c-1,1.1-2.1,1.6-3.5,1.6C118.3,59.3,117.1,58.7,116.2,57.7z"/>
				<polygon fill="#FFFFFF" points="116.8,30.7 115.2,30.7 115.2,20 111.2,20 111.2,18.6 120.8,18.6 120.8,20 116.8,20 				"/>
				<path fill="#FFFFFF" d="M109,49.6v8.5c-1.5,1.1-3,2.1-4.6,2.6c-1.6,0.6-3.1,0.9-4.9,0.9c-2.2,0-4.2-0.5-6.1-1.4
					c-1.9-1-3.2-2.4-4.1-4.1c-0.9-1.7-1.4-3.9-1.4-6.1c0-2.2,0.5-4.2,1.4-6.2c0.9-1.9,2.2-3.4,4-4.2c1.7-0.9,3.7-1.4,6-1.4
					c1.6,0,3.1,0.2,4.5,0.7c1.4,0.5,2.4,1.2,3.1,2.2c0.7,1,1.4,2.2,1.7,3.7l-2.7,0.8c-0.4-1.1-0.7-2.1-1.2-2.7
					c-0.5-0.6-1.2-1.2-2.1-1.6c-1-0.4-2-0.6-3.1-0.6c-1.4,0-2.6,0.2-3.6,0.6c-1,0.4-1.7,1-2.4,1.6s-1.1,1.4-1.4,2.2
					c-0.6,1.4-0.9,2.9-0.9,4.6c0,2,0.4,3.7,1,5.1c0.8,1.4,1.7,2.4,3,3c1.4,0.6,2.7,1,4.2,1c1.2,0,2.6-0.2,3.9-0.7
					c1.2-0.5,2.1-1,2.9-1.6v-4.2h-6.7v-2.6H109z"/>
				<polygon fill="#FFFFFF" points="102.4,23.7 109.1,23.7 109.1,25.1 102.4,25.1 102.4,29.2 109.9,29.2 109.9,30.5 100.9,30.5 
					100.9,18.6 109.6,18.6 109.6,20 102.4,20 				"/>
				<path fill="#FFFFFF" d="M98.4,24.4v4.5c-0.7,0.6-1.6,1.1-2.5,1.4c-0.9,0.4-1.7,0.5-2.6,0.5C92,30.8,91,30.5,90,30
					c-1-0.5-1.7-1.2-2.2-2.2c-0.5-1-0.7-2-0.7-3.2c0-1.1,0.2-2.2,0.7-3.4c0.5-1,1.2-1.7,2.1-2.2c0.9-0.5,2-0.7,3.2-0.7
					c0.9,0,1.6,0.1,2.4,0.4c0.7,0.2,1.2,0.6,1.6,1.2c0.4,0.5,0.7,1.1,0.9,2l-1.5,0.4c-0.1-0.6-0.4-1.1-0.6-1.5
					c-0.2-0.4-0.6-0.6-1.1-0.9c-0.5-0.2-1.1-0.4-1.6-0.4c-0.8,0-1.4,0.1-1.9,0.4c-0.5,0.2-1,0.5-1.2,0.9c-0.4,0.4-0.6,0.7-0.7,1.2
					c-0.2,0.8-0.5,1.6-0.5,2.5c0,1.1,0.1,2,0.5,2.7s0.9,1.2,1.6,1.6c0.7,0.4,1.5,0.5,2.2,0.5c0.7,0,1.4-0.1,2-0.4
					c0.6-0.2,1.1-0.5,1.5-0.9v-2.2h-3.4v-1.4H98.4z"/>
				<path fill="#DBAC36" d="M70.7,38c3.9,2.2,3.9,7.8,0,10.1L60.4,54L49.3,43l11.1-10.8L70.7,38z"/>
				<path fill="#BA4B3F" d="M27.6,63.9L49.2,43l11.1,11L36.1,67.7C32.6,69.7,28.4,67.5,27.6,63.9z"/>
				<path fill="#3D9150" d="M49.2,43L27.8,21.7c1-3.4,5.1-5.2,8.3-3.4l24.2,13.8L49.2,43z"/>
				<path fill="#496DA6" d="M27.5,41.6V23.3c0-0.6,0.1-1.1,0.2-1.6L49.2,43L27.6,63.9c-0.1-0.4-0.1-0.9-0.1-1.2V41.6z"/>
				<path fill="#4A8FC2" d="M49.3,43l11.1,11l10.3-5.9c3.9-2.2,3.9-7.8,0-10.1l-10.3-5.9L49.3,43z M49.2,43l11.1-10.8L36.1,18.3
					c-3.2-1.9-7.3,0-8.3,3.4c-0.1,0.5-0.2,1-0.2,1.6v18.3v21c0,0.4,0,0.9,0.1,1.2c0.8,3.6,5,5.7,8.5,3.7L60.3,54L49.2,43z
					 M93.2,18.2c-1.2,0-2.4,0.2-3.2,0.7c-0.9,0.5-1.6,1.2-2.1,2.2c-0.5,1.1-0.7,2.2-0.7,3.4c0,1.2,0.2,2.2,0.7,3.2
					c0.5,1,1.2,1.7,2.2,2.2c1,0.5,2,0.7,3.2,0.7c0.9,0,1.7-0.1,2.6-0.5c0.9-0.2,1.7-0.8,2.5-1.4v-4.5h-5.1v1.4h3.4v2.2
					c-0.4,0.4-0.9,0.6-1.5,0.9c-0.6,0.2-1.2,0.4-2,0.4c-0.8,0-1.5-0.1-2.2-0.5c-0.8-0.4-1.2-0.9-1.6-1.6s-0.5-1.6-0.5-2.7
					c0-0.9,0.3-1.7,0.5-2.5c0.1-0.5,0.4-0.9,0.7-1.2c0.2-0.4,0.8-0.6,1.2-0.9c0.5-0.2,1.1-0.4,1.9-0.4c0.5,0,1.1,0.1,1.6,0.4
					c0.5,0.2,0.9,0.5,1.1,0.9c0.2,0.4,0.5,0.9,0.6,1.5l1.5-0.4c-0.1-0.9-0.5-1.5-0.9-2c-0.4-0.6-0.9-1-1.6-1.2
					C94.8,18.3,94,18.2,93.2,18.2z M251.1,58.1c-0.4-1.4-0.8-2.6-1.2-3.9l-3.4-9.5h-3l6.2,16.4c-0.1,0.2-0.2,0.5-0.2,0.6
					c-0.4,1.1-0.7,1.9-0.9,2.1c-0.2,0.4-0.5,0.6-0.9,0.9c-0.4,0.1-0.9,0.3-1.5,0.3c-0.5,0-1-0.1-1.6-0.3l0.3,2.6
					c0.7,0.2,1.2,0.4,1.7,0.4c0.9,0,1.6-0.2,2.2-0.6c0.6-0.4,1.2-1.1,1.7-2c0.4-0.8,1-2,1.6-3.7l6.2-16.7h-2.7l-3.5,9.6
					C251.8,55.6,251.5,56.8,251.1,58.1z M100.9,18.6v12h9v-1.4h-7.5v-4.1h6.7v-1.4h-6.7V20h7.2v-1.4H100.9z M106.1,52.2v4.2
					c-0.7,0.6-1.6,1.1-2.9,1.6c-1.2,0.5-2.6,0.7-3.9,0.7c-1.5,0-2.9-0.4-4.2-1c-1.2-0.6-2.2-1.6-3-3c-0.6-1.4-1-3.1-1-5.1
					c0-1.7,0.2-3.2,0.9-4.6c0.2-0.9,0.8-1.6,1.4-2.2s1.4-1.2,2.4-1.6c1-0.4,2.2-0.6,3.6-0.6c1.1,0,2.1,0.2,3.1,0.6
					c0.9,0.4,1.6,1,2.1,1.6c0.5,0.6,0.9,1.6,1.2,2.7l2.7-0.8c-0.4-1.5-1-2.7-1.7-3.7c-0.8-1-1.7-1.7-3.1-2.2
					c-1.4-0.5-2.9-0.7-4.5-0.7c-2.2,0-4.2,0.5-6,1.4c-1.7,0.9-3.1,2.4-4,4.2c-0.9,2-1.4,4-1.4,6.2c0,2.2,0.5,4.4,1.4,6.1
					c0.9,1.7,2.2,3.1,4.1,4.1c1.9,0.9,3.9,1.4,6.1,1.4c1.7,0,3.2-0.2,4.9-0.9c1.6-0.5,3.1-1.5,4.6-2.6v-8.5h-9.6v2.6H106.1z
					 M128.8,30.7V18.6h-1.6v12.1H128.8z M126.2,57.7c0.6-1.2,1-2.9,1-5c0-2.6-0.7-4.6-2.1-6.1c-1.4-1.5-3.2-2.2-5.5-2.2
					c-2,0-3.7,0.6-5.1,1.9c-1.6,1.5-2.5,3.7-2.5,6.7c0,2.7,0.8,4.9,1.9,6.4c1.5,1.5,3.4,2.2,5.6,2.2c1.5,0,2.7-0.4,4-1
					C124.7,59.8,125.5,58.9,126.2,57.7z M176.2,57.7c-0.9-0.9-1.4-2.4-1.5-4.1H187c0-0.4,0-0.6,0-0.8c0-2.7-0.8-4.9-2.1-6.4
					c-1.4-1.5-3.1-2.2-5.4-2.2s-4.1,0.7-5.5,2.2c-1.4,1.6-2.1,3.7-2.1,6.5c0,2.6,0.7,4.7,2.1,6.2c1.4,1.5,3.4,2.2,5.7,2.2
					c2,0,3.5-0.5,4.7-1.4c1.2-0.9,2-2.2,2.5-3.9l-2.9-0.4c-0.4,1.2-1,2-1.7,2.6c-0.7,0.5-1.6,0.8-2.6,0.8
					C178.4,59.2,177.1,58.7,176.2,57.7z M226.9,54.5c-0.4,0.7-0.5,1.5-0.5,2.2c0,1.4,0.5,2.5,1.5,3.4c0.9,0.9,2.4,1.4,4.1,1.4
					c1.1,0,2.1-0.1,3.1-0.5c1-0.4,2-1,3-1.9c0.1,0.9,0.2,1.5,0.8,2h2.9c-0.4-0.6-0.6-1.2-0.7-2c-0.1-0.6-0.1-2.2-0.1-4.9v-3.7
					c0-1.2,0-2.1-0.1-2.6c-0.1-0.8-0.5-1.4-0.9-1.9c-0.5-0.5-1.1-0.9-2-1.2c-0.9-0.4-2-0.5-3.4-0.5c-1.4,0-2.6,0.2-3.7,0.6
					c-1.1,0.4-1.9,0.9-2.5,1.6s-1,1.7-1.2,2.9l2.7,0.4c0.2-1.2,0.7-2,1.4-2.5c0.6-0.5,1.5-0.7,2.9-0.7c1.4,0,2.4,0.4,3.1,1
					c0.5,0.4,0.7,1.2,0.7,2.4c0,0.1,0,0.4,0,0.7c-1.1,0.4-2.7,0.8-5,1c-1.1,0.1-2,0.2-2.5,0.4c-0.7,0.1-1.4,0.5-2,0.9
					C227.8,53.2,227.3,53.8,226.9,54.5z M220.3,38.5v22.7h2.7V38.5H220.3z M143.9,57.7c0.6-1.2,1-2.9,1-5c0-2.6-0.7-4.6-2.1-6.1
					c-1.4-1.5-3.2-2.2-5.5-2.2c-2,0-3.7,0.6-5.1,1.9c-1.6,1.5-2.5,3.7-2.5,6.7c0,2.7,0.6,4.9,1.9,6.4c1.5,1.5,3.4,2.2,5.6,2.2
					c1.5,0,2.7-0.4,4-1C142.4,59.8,143.2,58.9,143.9,57.7z M115.2,20v10.7h1.6V20h4v-1.4h-9.6V20H115.2z M199.7,38.5v22.7h3V52h6
					c3.1,0,5.4-0.6,6.6-2c1.2-1.2,1.9-3,1.9-4.9c0-1.1-0.2-2.1-0.7-3.1c-0.5-1-1.1-1.7-1.9-2.2c-0.7-0.5-1.6-0.9-2.7-1
					c-0.9-0.1-2-0.2-3.5-0.2H199.7z M165.8,38.5v22.7h2.7V38.5H165.8z M161.8,58.8V44.6h-2.6v2c-1.2-1.6-2.7-2.4-4.7-2.4
					c-1.4,0-2.6,0.4-3.7,1.1c-1.1,0.8-1.9,1.7-2.5,3.1s-0.9,2.7-0.9,4.4c0,2.2,0.6,4.2,1.9,5.9c1.2,1.6,3,2.5,5.2,2.5
					c1.7,0,3.2-0.8,4.5-2.1c0,1.9-0.1,3-0.2,3.6c-0.2,0.9-0.6,1.6-1.4,2.1c-0.8,0.5-1.7,0.8-3,0.8c-1.2,0-2.1-0.2-2.9-0.8
					c-0.6-0.4-0.9-1-1-1.9l-2.7-0.4c0,1.7,0.5,3,2,3.7c1.2,0.9,2.7,1.4,4.7,1.4c1.6,0,3-0.2,4.1-0.9c1.1-0.6,2-1.4,2.5-2.5
					C161.5,63.2,161.8,61.4,161.8,58.8z M169.8,28.2l-6.4-9.6h-1.6v12.1h1.5v-9.6l6.4,9.6h1.6V18.6h-1.5V28.2z M25.4,2.8h233
					c9,0,16.3,7.3,16.3,16.3v47.8c0,9.1-7.3,16.3-16.3,16.3h-233c-9,0-16.3-7.3-16.3-16.3V19.1C9.1,10.1,16.4,2.8,25.4,2.8z
					 M131.6,18.6v12.1h1.5v-9.6l6.4,9.6h1.6V18.6h-1.5v9.6l-6.4-9.6H131.6z M150.8,29.9c1,0.6,2,0.9,3.1,0.9c1.1,0,2.1-0.2,3-0.7
					c0.9-0.5,1.6-1.2,2.1-2.2c0.5-1,0.7-2.1,0.7-3.4c0-1.2-0.2-2.2-0.7-3.2c-0.5-1-1.2-1.7-2.1-2.2c-0.9-0.5-1.9-0.7-3-0.7
					c-1.7,0-3.1,0.6-4.2,1.7c-1.1,1.1-1.6,2.7-1.6,4.7c0,1.1,0.2,2.1,0.7,3C149.2,28.7,150,29.4,150.8,29.9z"/>
			</g>
			<g>
				<path fill="none" stroke="#FFFFFF" stroke-miterlimit="10" d="M99.4,52.2v-2.6h9.6v8.5c-1.5,1.1-3,2.1-4.6,2.6
					c-1.6,0.6-3.1,0.9-4.9,0.9c-2.2,0-4.2-0.5-6.1-1.4c-1.9-1-3.2-2.4-4.1-4.1c-0.9-1.7-1.4-3.9-1.4-6.1c0-2.2,0.5-4.2,1.4-6.2
					c0.9-1.9,2.2-3.4,4-4.2c1.7-0.9,3.7-1.4,6-1.4c1.6,0,3.1,0.2,4.5,0.7c1.4,0.5,2.4,1.2,3.1,2.2c0.7,1,1.4,2.2,1.7,3.7l-2.7,0.8
					c-0.4-1.1-0.7-2.1-1.2-2.7c-0.5-0.6-1.2-1.2-2.1-1.6c-1-0.4-2-0.6-3.1-0.6c-1.4,0-2.6,0.2-3.6,0.6c-1,0.4-1.7,1-2.4,1.6
					s-1.1,1.4-1.4,2.2c-0.6,1.4-0.9,2.9-0.9,4.6c0,2,0.4,3.7,1,5.1c0.8,1.4,1.7,2.4,3,3c1.4,0.6,2.7,1,4.2,1c1.2,0,2.6-0.2,3.9-0.7
					c1.2-0.5,2.1-1,2.9-1.6v-4.2H99.4z"/>
				<path fill="none" stroke="#FFFFFF" stroke-miterlimit="10" d="M112,53c0-3,0.9-5.2,2.5-6.7c1.4-1.2,3.1-1.9,5.1-1.9
					c2.2,0,4.1,0.7,5.5,2.2c1.4,1.5,2.1,3.5,2.1,6.1c0,2.1-0.4,3.7-1,5c-0.6,1.2-1.5,2.1-2.7,2.9c-1.2,0.6-2.5,1-4,1
					c-2.2,0-4.1-0.8-5.6-2.2C112.7,57.8,112,55.7,112,53z"/>
				<path fill="none" stroke="#FFFFFF" stroke-miterlimit="10" d="M114.8,53c0,2.1,0.5,3.7,1.4,4.7c0.9,1,2.1,1.6,3.5,1.6
					c1.4,0,2.5-0.5,3.5-1.6c0.9-1,1.4-2.6,1.4-4.9c0-2-0.5-3.6-1.4-4.6c-0.9-1-2.1-1.6-3.5-1.6c-1.4,0-2.5,0.5-3.5,1.6
					C115.3,49.2,114.8,50.8,114.8,53z"/>
				<path fill="none" stroke="#FFFFFF" stroke-miterlimit="10" d="M129.7,53c0-3,0.9-5.2,2.5-6.7c1.4-1.2,3.1-1.9,5.1-1.9
					c2.2,0,4.1,0.7,5.5,2.2c1.4,1.5,2.1,3.5,2.1,6.1c0,2.1-0.4,3.7-1,5c-0.6,1.2-1.5,2.1-2.7,2.9c-1.2,0.6-2.5,1-4,1
					c-2.2,0-4.1-0.8-5.6-2.2C130.3,57.8,129.7,55.7,129.7,53z"/>
				<path fill="none" stroke="#FFFFFF" stroke-miterlimit="10" d="M132.5,53c0,2.1,0.5,3.7,1.4,4.7c0.9,1,2.1,1.6,3.5,1.6
					c1.4,0,2.5-0.5,3.5-1.6c0.9-1,1.4-2.6,1.4-4.9c0-2-0.5-3.6-1.4-4.6c-0.9-1-2.1-1.6-3.5-1.6c-1.4,0-2.5,0.5-3.5,1.6
					C132.9,49.2,132.5,50.8,132.5,53z"/>
				<path fill="none" stroke="#FFFFFF" stroke-miterlimit="10" d="M147.7,62.6l2.7,0.4c0.1,0.9,0.4,1.5,1,1.9
					c0.7,0.5,1.6,0.8,2.9,0.8c1.2,0,2.2-0.2,3-0.8c0.7-0.5,1.1-1.2,1.4-2.1c0.1-0.6,0.2-1.7,0.2-3.6c-1.2,1.4-2.7,2.1-4.5,2.1
					c-2.2,0-4-0.9-5.2-2.5c-1.2-1.6-1.9-3.6-1.9-5.9c0-1.6,0.2-3,0.9-4.4s1.4-2.4,2.5-3.1c1.1-0.7,2.4-1.1,3.7-1.1
					c2,0,3.5,0.7,4.7,2.4v-2h2.6v14.2c0,2.6-0.2,4.4-0.7,5.5c-0.5,1.1-1.4,1.9-2.5,2.5c-1.1,0.6-2.5,0.9-4.1,0.9
					c-2,0-3.5-0.5-4.7-1.4C148.2,65.5,147.7,64.3,147.7,62.6z"/>
				<path fill="none" stroke="#FFFFFF" stroke-miterlimit="10" d="M150.1,52.6c0,2.1,0.4,3.7,1.2,4.7c0.9,1,1.9,1.5,3.2,1.5
					c1.2,0,2.4-0.5,3.2-1.5c0.9-1,1.2-2.5,1.2-4.6c0-2-0.5-3.5-1.4-4.5c-0.9-1-2-1.5-3.2-1.5c-1.2,0-2.2,0.5-3.1,1.5
					C150.5,49.2,150.1,50.6,150.1,52.6z"/>
				<rect x="165.8" y="38.5" fill="none" stroke="#FFFFFF" stroke-miterlimit="10" width="2.7" height="22.7"/>
				<path fill="none" stroke="#FFFFFF" stroke-miterlimit="10" d="M184.1,55.8l2.9,0.4c-0.5,1.6-1.2,3-2.5,3.9
					c-1.2,0.9-2.7,1.4-4.7,1.4c-2.4,0-4.4-0.8-5.7-2.2c-1.4-1.5-2.1-3.6-2.1-6.2c0-2.7,0.8-4.9,2.1-6.5c1.4-1.5,3.2-2.2,5.5-2.2
					s4,0.7,5.4,2.2c1.4,1.5,2.1,3.6,2.1,6.4c0,0.1,0,0.4,0,0.8h-12.2c0.1,1.7,0.6,3.2,1.5,4.1c0.9,1,2.1,1.5,3.5,1.5
					c1,0,1.9-0.3,2.6-0.8C183.1,57.8,183.7,57.1,184.1,55.8z"/>
				<path fill="none" stroke="#FFFFFF" stroke-miterlimit="10" d="M175,51.3h9.2c-0.1-1.4-0.5-2.4-1-3.1c-0.9-1.1-2-1.6-3.5-1.6
					c-1.2,0-2.4,0.4-3.2,1.2C175.5,48.7,175.1,50,175,51.3z"/>
				<path fill="none" stroke="#FFFFFF" stroke-miterlimit="10" d="M199.7,61.2V38.5h8.6c1.5,0,2.6,0.1,3.5,0.2c1.1,0.1,2,0.5,2.7,1
					c0.7,0.5,1.4,1.2,1.9,2.2c0.5,1,0.7,2,0.7,3.1c0,1.9-0.6,3.6-1.9,4.9c-1.2,1.4-3.5,2-6.6,2h-6v9.2H199.7z"/>
				<path fill="none" stroke="#FFFFFF" stroke-miterlimit="10" d="M202.6,49.2h5.9c2,0,3.4-0.4,4.1-1.1c0.9-0.8,1.2-1.7,1.2-3
					c0-1-0.2-1.7-0.8-2.5c-0.5-0.6-1.1-1.1-1.9-1.4c-0.5-0.1-1.5-0.2-2.7-0.2h-5.9V49.2z"/>
				<rect x="220.3" y="38.5" fill="none" stroke="#FFFFFF" stroke-miterlimit="10" width="2.7" height="22.7"/>
				<path fill="none" stroke="#FFFFFF" stroke-miterlimit="10" d="M238.1,59.1c-1,0.9-2,1.5-3,1.9c-1,0.4-2,0.5-3.1,0.5
					c-1.7,0-3.2-0.5-4.1-1.4c-1-0.9-1.5-2-1.5-3.4c0-0.7,0.1-1.5,0.5-2.2c0.4-0.6,0.9-1.2,1.5-1.6c0.6-0.4,1.2-0.7,2-0.9
					c0.5-0.1,1.4-0.2,2.5-0.4c2.2-0.2,3.9-0.6,5-1c0-0.4,0-0.6,0-0.7c0-1.1-0.2-2-0.7-2.4c-0.8-0.6-1.7-1-3.1-1
					c-1.4,0-2.2,0.2-2.9,0.7c-0.6,0.5-1.1,1.2-1.4,2.5l-2.7-0.4c0.3-1.1,0.6-2.1,1.2-2.9s1.4-1.2,2.5-1.6c1.1-0.4,2.4-0.6,3.7-0.6
					c1.4,0,2.5,0.1,3.4,0.5c0.9,0.4,1.5,0.8,2,1.2c0.4,0.5,0.7,1.1,0.9,1.9c0.1,0.5,0.1,1.4,0.1,2.6v3.7c0,2.6,0,4.2,0.1,4.9
					c0.1,0.8,0.4,1.4,0.7,2h-2.9C238.4,60.6,238.3,59.9,238.1,59.1z"/>
				<path fill="none" stroke="#FFFFFF" stroke-miterlimit="10" d="M237.9,52.8c-1,0.4-2.5,0.8-4.5,1c-1.1,0.1-2,0.4-2.4,0.5
					c-0.5,0.2-0.9,0.5-1.1,0.9c-0.2,0.4-0.4,0.9-0.4,1.4c0,0.8,0.2,1.4,0.9,1.9s1.4,0.8,2.5,0.8c1.1,0,2-0.3,2.9-0.8
					c0.9-0.5,1.5-1.1,1.9-1.9c0.2-0.6,0.5-1.5,0.5-2.7v-1H237.9z"/>
				<path fill="none" stroke="#FFFFFF" stroke-miterlimit="10" d="M244.9,67.4l-0.3-2.6c0.6,0.1,1.1,0.3,1.6,0.3
					c0.6,0,1.1-0.1,1.5-0.3c0.4-0.2,0.6-0.5,0.9-0.9c0.1-0.2,0.5-1,0.9-2.1c0-0.1,0.1-0.4,0.2-0.6l-6.2-16.4h3l3.4,9.5
					c0.5,1.2,0.9,2.5,1.2,3.9c0.4-1.2,0.7-2.5,1.1-3.7l3.5-9.6h2.7l-6.2,16.7c-0.6,1.7-1.2,3-1.6,3.7c-0.5,0.9-1.1,1.6-1.7,2
					c-0.6,0.4-1.4,0.6-2.2,0.6C246.1,67.8,245.6,67.7,244.9,67.4z"/>
			</g>
		</g>
	</g>
</g>
</svg>
