<?xml version="1.0" encoding="utf-8"?>
<!-- Generator: Adobe Illustrator 18.0.0, SVG Export Plug-In . SVG Version: 6.00 Build 0)  -->
<!DOCTYPE svg PUBLIC "-//W3C//DTD SVG 1.1//EN" "http://www.w3.org/Graphics/SVG/1.1/DTD/svg11.dtd">
<svg version="1.1" id="Capa_1" xmlns="http://www.w3.org/2000/svg" xmlns:xlink="http://www.w3.org/1999/xlink" x="0px" y="0px"
	 viewBox="0 0 269.3 82.2" enable-background="new 0 0 269.3 82.2" xml:space="preserve">
<g>
	<g>
		<g id="XMLID_1_">
			<g>
				<path fill="#FFFFFF" d="M244,59.6l-6.3-16.6h3l3.5,9.6c0.5,1.2,0.9,2.5,1.2,4c0.4-1.2,0.7-2.5,1.1-3.8l3.6-9.7h2.7L246.6,60
					c-0.6,1.7-1.2,3-1.6,3.8c-0.5,0.9-1.1,1.6-1.7,2c-0.6,0.4-1.4,0.6-2.2,0.6c-0.5,0-1-0.1-1.7-0.4l-0.3-2.6
					c0.6,0.1,1.1,0.3,1.6,0.3c0.6,0,1.1-0.1,1.5-0.3c0.4-0.2,0.6-0.5,0.9-0.9c0.1-0.2,0.5-1,0.9-2.1C243.8,60.1,243.9,59.8,244,59.6
					z"/>
				<path fill="#FFFFFF" d="M220.4,55c0-0.7,0.1-1.5,0.5-2.2c0.4-0.6,0.9-1.2,1.5-1.6s1.2-0.7,2-0.9c0.5-0.1,1.4-0.2,2.5-0.4
					c2.2-0.2,4-0.6,5.1-1c0-0.4,0-0.6,0-0.7c0-1.1-0.2-2-0.7-2.4c-0.8-0.6-1.7-1-3.1-1s-2.2,0.2-2.9,0.7c-0.6,0.5-1.1,1.2-1.4,2.5
					l-2.7-0.4c0.3-1.1,0.6-2.1,1.2-2.9c0.6-0.8,1.4-1.2,2.5-1.6c1.1-0.4,2.4-0.6,3.8-0.6c1.4,0,2.5,0.1,3.5,0.5
					c0.9,0.4,1.5,0.8,2,1.2c0.4,0.5,0.7,1.1,0.9,1.9c0.1,0.5,0.1,1.4,0.1,2.6v3.8c0,2.6,0,4.3,0.1,5c0.1,0.8,0.4,1.4,0.7,2H233
					c-0.5-0.5-0.6-1.1-0.8-2c-1,0.9-2,1.5-3,1.9c-1,0.4-2,0.5-3.1,0.5c-1.7,0-3.2-0.5-4.2-1.4C220.9,57.5,220.4,56.4,220.4,55z
					 M223.9,53.5c-0.2,0.4-0.4,0.9-0.4,1.4c0,0.8,0.2,1.4,0.9,1.9c0.7,0.5,1.4,0.8,2.5,0.8c1.1,0,2-0.3,2.9-0.8
					c0.9-0.5,1.5-1.1,1.9-1.9c0.2-0.6,0.5-1.5,0.5-2.7v-1h-0.2c-1,0.4-2.5,0.8-4.6,1c-1.1,0.1-2,0.4-2.4,0.5
					C224.6,52.9,224.2,53.1,223.9,53.5z"/>
				<path fill="#4987B4" d="M223.5,54.9c0-0.5,0.1-1,0.4-1.4c0.2-0.4,0.6-0.6,1.1-0.9c0.4-0.1,1.2-0.4,2.4-0.5c2-0.2,3.6-0.6,4.6-1
					h0.2v1c0,1.2-0.2,2.1-0.5,2.7c-0.4,0.8-1,1.4-1.9,1.9c-0.9,0.5-1.7,0.8-2.9,0.8c-1.1,0-1.9-0.3-2.5-0.8
					C223.7,56.2,223.5,55.6,223.5,54.9z"/>
				<rect x="214.2" y="36.5" fill="#FFFFFF" width="2.7" height="23"/>
				<path fill="#4987B4" d="M206.9,40.7c0.5,0.7,0.8,1.5,0.8,2.5c0,1.2-0.4,2.2-1.2,3c-0.7,0.7-2.1,1.1-4.2,1.1h-6v-8.3h6
					c1.2,0,2.2,0.1,2.7,0.2C205.8,39.6,206.4,40.1,206.9,40.7z"/>
				<path fill="#FFFFFF" d="M193.3,59.6v-23h8.7c1.5,0,2.6,0.1,3.6,0.2c1.1,0.1,2,0.5,2.7,1c0.7,0.5,1.4,1.2,1.9,2.2
					c0.5,1,0.7,2,0.7,3.1c0,1.9-0.6,3.7-1.9,5c-1.2,1.4-3.6,2-6.7,2h-6.1v9.3h-2.9V59.6z M207.7,43.2c0-1-0.2-1.7-0.8-2.5
					c-0.5-0.6-1.1-1.1-1.9-1.4c-0.5-0.1-1.5-0.2-2.7-0.2h-6v8.3h6c2,0,3.5-0.4,4.2-1.1C207.3,45.6,207.7,44.6,207.7,43.2z"/>
				<path fill="#FFFFFF" d="M167.2,57.5c-1.4-1.5-2.1-3.7-2.1-6.3c0-2.7,0.8-5,2.1-6.6c1.4-1.5,3.2-2.2,5.6-2.2s4.1,0.7,5.5,2.2
					c1.4,1.5,2.1,3.7,2.1,6.5c0,0.1,0,0.4,0,0.8H168c0.1,1.7,0.6,3.2,1.5,4.2c0.9,1,2.1,1.5,3.6,1.5c1,0,1.9-0.3,2.6-0.8
					c0.8-0.6,1.4-1.4,1.7-2.6l2.9,0.4c-0.5,1.6-1.2,3-2.5,4c-1.2,0.9-2.7,1.4-4.8,1.4C170.7,59.8,168.6,59.1,167.2,57.5z
					 M168.2,49.5h9.3c-0.1-1.4-0.5-2.4-1-3.1c-0.9-1.1-2-1.6-3.6-1.6c-1.2,0-2.4,0.4-3.2,1.2C168.7,46.9,168.3,48.2,168.2,49.5z"/>
				<path fill="#4987B4" d="M177.6,49.5h-9.3c0.1-1.4,0.5-2.6,1.5-3.6c0.9-0.9,2-1.2,3.2-1.2c1.5,0,2.6,0.5,3.6,1.6
					C177.1,47.2,177.5,48.2,177.6,49.5z"/>
				<rect x="158.9" y="36.5" fill="#FFFFFF" width="2.7" height="23"/>
				<polygon fill="#FFFFFF" points="156.5,16.3 163,26.1 163,16.3 164.5,16.3 164.5,28.6 162.8,28.6 156.4,18.9 156.4,28.6 
					154.8,28.6 154.8,16.3 				"/>
				<path fill="#FFFFFF" d="M154.8,42.7v14.4c0,2.6-0.2,4.5-0.7,5.6c-0.5,1.1-1.4,1.9-2.5,2.5c-1.1,0.6-2.5,0.9-4.2,0.9
					c-2,0-3.6-0.5-4.8-1.4c-1.5-0.7-2-2-2-3.8l2.7,0.4c0.1,0.9,0.4,1.5,1,1.9c0.7,0.5,1.6,0.8,2.9,0.8c1.2,0,2.2-0.2,3-0.8
					c0.7-0.5,1.1-1.2,1.4-2.1c0.1-0.6,0.2-1.7,0.2-3.7c-1.2,1.4-2.7,2.1-4.6,2.1c-2.2,0-4.1-0.9-5.3-2.5s-1.9-3.7-1.9-6
					c0-1.6,0.2-3,0.9-4.5s1.4-2.4,2.5-3.1c1.1-0.7,2.4-1.1,3.8-1.1c2,0,3.6,0.7,4.8,2.4v-2h2.6V42.7z M150.8,55.6
					c0.9-1,1.2-2.5,1.2-4.7c0-2-0.5-3.6-1.4-4.6c-0.9-1-2-1.5-3.2-1.5c-1.2,0-2.2,0.5-3.1,1.5c-0.9,1-1.2,2.4-1.2,4.5
					c0,2.1,0.4,3.8,1.2,4.8c0.9,1,1.9,1.5,3.2,1.5C148.7,57.1,149.9,56.6,150.8,55.6z"/>
				<path fill="#4987B4" d="M152.1,50.9c0,2.1-0.4,3.7-1.2,4.7c-0.9,1-2,1.5-3.2,1.5c-1.4,0-2.4-0.5-3.2-1.5c-0.9-1-1.2-2.6-1.2-4.8
					c0-2,0.4-3.5,1.2-4.5c0.9-1,1.9-1.5,3.1-1.5s2.4,0.5,3.2,1.5C151.6,47.4,152.1,48.9,152.1,50.9z"/>
				<path fill="#4987B4" d="M150.4,19.7c0.4,0.8,0.5,1.6,0.5,2.6c0,1.5-0.4,2.7-1.1,3.7c-0.7,0.9-1.7,1.2-3,1.2
					c-1.2,0-2.2-0.4-3-1.2c-0.7-0.9-1.1-2-1.1-3.6c0-1.7,0.4-3.1,1.1-4.1c0.9-0.8,1.9-1.1,3-1.1c0.7,0,1.5,0.2,2.1,0.6
					C149.6,18.4,150.1,19,150.4,19.7z"/>
				<path fill="#FFFFFF" d="M146.8,28.7c-1.1,0-2.1-0.2-3.1-0.9c-0.9-0.5-1.6-1.2-2-2.2c-0.5-0.9-0.7-1.9-0.7-3c0-2,0.5-3.7,1.6-4.8
					c1.1-1.1,2.5-1.7,4.3-1.7c1.1,0,2.1,0.2,3,0.7c0.9,0.5,1.6,1.2,2.1,2.2c0.5,1,0.7,2,0.7,3.2c0,1.2-0.2,2.4-0.7,3.5
					c-0.5,1-1.2,1.7-2.1,2.2C149.1,28.4,148,28.7,146.8,28.7z M148.9,18c-0.6-0.4-1.4-0.6-2.1-0.6c-1.1,0-2.1,0.4-3,1.1
					c-0.7,0.9-1.1,2.2-1.1,4.1c0,1.5,0.4,2.6,1.1,3.6c0.8,0.9,1.7,1.2,3,1.2c1.2,0,2.2-0.4,3-1.2c0.8-0.9,1.1-2.1,1.1-3.7
					c0-1-0.1-1.9-0.5-2.6C150.1,19,149.6,18.4,148.9,18z"/>
				<path fill="#FFFFFF" d="M125.1,51.2c0,2.1,0.5,3.8,1.4,4.8s2.1,1.6,3.6,1.6s2.5-0.5,3.6-1.6c0.9-1,1.4-2.6,1.4-5
					c0-2-0.5-3.7-1.4-4.7c-0.9-1-2.1-1.6-3.6-1.6s-2.5,0.5-3.6,1.6C125.5,47.4,125.1,49,125.1,51.2z M137.7,50.9
					c0,2.1-0.4,3.8-1,5.1c-0.6,1.2-1.5,2.1-2.7,2.9c-1.2,0.6-2.5,1-4.1,1c-2.2,0-4.2-0.8-5.7-2.2c-1.2-1.5-1.9-3.7-1.9-6.5
					c0-3,0.9-5.3,2.5-6.8c1.4-1.2,3.1-1.9,5.2-1.9c2.2,0,4.2,0.7,5.6,2.2C136.9,46.3,137.7,48.3,137.7,50.9z"/>
				<path fill="#4987B4" d="M126.5,56c-0.9-1-1.4-2.6-1.4-4.8s0.4-3.8,1.4-4.8c1-1.1,2.1-1.6,3.6-1.6s2.6,0.6,3.6,1.6
					c0.9,1,1.4,2.6,1.4,4.7c0,2.2-0.5,4-1.4,5c-1,1.1-2.1,1.6-3.6,1.6C128.7,57.6,127.4,57,126.5,56z"/>
				<polygon fill="#FFFFFF" points="124.2,28.6 124.2,16.3 125.9,16.3 132.3,26.1 132.3,16.3 133.8,16.3 133.8,28.6 132.2,28.6 
					125.7,18.9 125.7,28.6 				"/>
				<rect x="119.7" y="16.3" fill="#FFFFFF" width="1.6" height="12.3"/>
				<path fill="#FFFFFF" d="M107.1,51.2c0,2.1,0.5,3.8,1.4,4.8c0.9,1,2.1,1.6,3.6,1.6s2.5-0.5,3.6-1.6c0.9-1,1.4-2.6,1.4-5
					c0-2-0.5-3.7-1.4-4.7c-0.9-1-2.1-1.6-3.6-1.6s-2.5,0.5-3.6,1.6C107.7,47.4,107.1,49,107.1,51.2z M119.7,50.9
					c0,2.1-0.4,3.8-1,5.1c-0.6,1.2-1.5,2.1-2.7,2.9c-1.2,0.6-2.5,1-4.1,1c-2.2,0-4.2-0.8-5.7-2.2c-1.1-1.5-1.9-3.7-1.9-6.5
					c0-3,0.9-5.3,2.5-6.8c1.4-1.2,3.1-1.9,5.2-1.9c2.2,0,4.2,0.7,5.6,2.2C118.9,46.3,119.7,48.3,119.7,50.9z"/>
				<path fill="#4987B4" d="M108.6,56c-0.9-1-1.4-2.6-1.4-4.8s0.5-3.8,1.4-4.8c1-1.1,2.1-1.6,3.6-1.6s2.6,0.6,3.6,1.6
					c0.9,1,1.4,2.6,1.4,4.7c0,2.2-0.5,4-1.4,5c-1,1.1-2.1,1.6-3.6,1.6C110.7,57.6,109.5,57,108.6,56z"/>
				<polygon fill="#FFFFFF" points="109.2,28.6 107.6,28.6 107.6,17.8 103.5,17.8 103.5,16.3 113.2,16.3 113.2,17.8 109.2,17.8 				
					"/>
				<path fill="#FFFFFF" d="M101.3,47.8v8.6c-1.5,1.1-3,2.1-4.7,2.6c-1.6,0.6-3.1,0.9-5,0.9c-2.2,0-4.3-0.5-6.2-1.4
					c-1.9-1-3.2-2.4-4.2-4.2c-0.9-1.7-1.4-4-1.4-6.2s0.5-4.3,1.4-6.3c0.9-1.9,2.2-3.5,4.1-4.3c1.7-0.9,3.8-1.4,6.1-1.4
					c1.6,0,3.1,0.2,4.6,0.7c1.4,0.5,2.4,1.2,3.1,2.2c0.7,1,1.4,2.2,1.7,3.8l-2.7,0.8c-0.4-1.1-0.7-2.1-1.2-2.7
					c-0.5-0.6-1.2-1.2-2.1-1.6c-1-0.4-2-0.6-3.1-0.6c-1.4,0-2.6,0.2-3.7,0.6c-1,0.4-1.7,1-2.4,1.6c-0.7,0.6-1.1,1.4-1.4,2.2
					c-0.6,1.4-0.9,2.9-0.9,4.7c0,2,0.4,3.8,1,5.2c0.8,1.4,1.7,2.4,3,3c1.4,0.6,2.7,1,4.3,1c1.2,0,2.6-0.2,4-0.7
					c1.2-0.5,2.1-1,2.9-1.6v-4.3h-6.8v-2.6h9.6V47.8z"/>
				<polygon fill="#FFFFFF" points="94.6,21.5 101.4,21.5 101.4,22.9 94.6,22.9 94.6,27.1 102.2,27.1 102.2,28.4 93,28.4 93,16.3 
					101.9,16.3 101.9,17.8 94.6,17.8 				"/>
				<path fill="#FFFFFF" d="M90.5,22.2v4.6c-0.7,0.6-1.6,1.1-2.5,1.4c-0.9,0.4-1.7,0.5-2.6,0.5c-1.3,0-2.3-0.3-3.3-0.8
					c-1-0.5-1.7-1.2-2.2-2.2c-0.5-1-0.7-2-0.7-3.2c0-1.1,0.2-2.2,0.7-3.5c0.5-1,1.2-1.7,2.1-2.2c0.9-0.5,2-0.7,3.2-0.7
					c0.9,0,1.6,0.1,2.4,0.4c0.7,0.2,1.2,0.6,1.6,1.2c0.4,0.5,0.7,1.1,0.9,2l-1.5,0.4c-0.1-0.6-0.4-1.1-0.6-1.5
					c-0.2-0.4-0.6-0.6-1.1-0.9c-0.5-0.2-1.1-0.4-1.6-0.4c-0.8,0-1.4,0.1-1.9,0.4c-0.5,0.2-1,0.5-1.2,0.9c-0.4,0.4-0.6,0.7-0.7,1.2
					c-0.2,0.8-0.5,1.6-0.5,2.5c0,1.1,0.1,2,0.5,2.7c0.4,0.7,0.9,1.2,1.6,1.6s1.5,0.5,2.2,0.5s1.4-0.1,2-0.4c0.6-0.2,1.1-0.5,1.5-0.9
					v-2.2h-3.5v-1.4H90.5z"/>
				<path fill="#D2A73B" d="M62.4,36c4,2.2,4,7.9,0,10.2l-10.5,6L40.7,41.1l11.3-11L62.4,36z"/>
				<path fill="#B14B3F" d="M18.7,62.3l21.9-21.2l11.3,11.2L27.3,66.2C23.7,68.2,19.5,66,18.7,62.3z"/>
				<path fill="#3E8A4E" d="M40.6,41.1L18.9,19.5c1-3.5,5.2-5.3,8.4-3.5l24.6,14L40.6,41.1z"/>
				<path fill="#46689C" d="M18.6,39.7V21.1c0-0.6,0.1-1.1,0.2-1.6l21.8,21.6L18.7,62.3c-0.1-0.4-0.1-0.9-0.1-1.2V39.7z"/>
				<path fill="#4987B4" d="M40.7,41.1l11.3,11.2l10.5-6c4-2.2,4-7.9,0-10.2l-10.5-6L40.7,41.1z M40.6,41.1l11.3-11L27.3,16
					c-3.2-1.9-7.4,0-8.4,3.5c-0.1,0.5-0.2,1-0.2,1.6v18.6V61c0,0.4,0,0.9,0.1,1.2c0.8,3.7,5.1,5.8,8.6,3.8l24.5-13.7L40.6,41.1z
					 M85.2,15.9c-1.2,0-2.4,0.2-3.2,0.7c-0.9,0.5-1.6,1.2-2.1,2.2c-0.5,1.1-0.7,2.2-0.7,3.5c0,1.2,0.2,2.2,0.7,3.2
					c0.5,1,1.2,1.7,2.2,2.2c1,0.5,2,0.7,3.2,0.7c0.9,0,1.7-0.1,2.6-0.5c0.9-0.2,1.7-0.8,2.5-1.4V22h-5.2v1.4h3.5v2.2
					c-0.4,0.4-0.9,0.6-1.5,0.9c-0.6,0.2-1.2,0.4-2,0.4s-1.5-0.1-2.2-0.5c-0.8-0.4-1.2-0.9-1.6-1.6c-0.4-0.7-0.5-1.6-0.5-2.7
					c0-0.9,0.3-1.7,0.5-2.5c0.1-0.5,0.4-0.9,0.7-1.2c0.2-0.4,0.8-0.6,1.2-0.9c0.5-0.2,1.1-0.4,1.9-0.4c0.5,0,1.1,0.1,1.6,0.4
					c0.5,0.2,0.9,0.5,1.1,0.9c0.2,0.4,0.5,0.9,0.6,1.5l1.5-0.4c-0.1-0.9-0.5-1.5-0.9-2c-0.4-0.6-0.9-1-1.6-1.2
					C86.9,16,86,15.9,85.2,15.9z M245.5,56.4c-0.4-1.4-0.8-2.6-1.2-4l-3.5-9.6h-3l6.3,16.6c-0.1,0.2-0.2,0.5-0.2,0.6
					c-0.4,1.1-0.7,1.9-0.9,2.1c-0.2,0.4-0.5,0.6-0.9,0.9c-0.4,0.1-0.9,0.3-1.5,0.3c-0.5,0-1-0.1-1.6-0.3l0.3,2.6
					c0.7,0.2,1.2,0.4,1.7,0.4c0.9,0,1.6-0.2,2.2-0.6c0.6-0.4,1.2-1.1,1.7-2c0.4-0.8,1-2,1.6-3.8l6.3-16.9H250l-3.6,9.7
					C246.2,53.9,245.9,55.1,245.5,56.4z M93,16.3v12.2h9.1v-1.4h-7.6v-4.2h6.8v-1.4h-6.8v-3.8h7.3v-1.4H93z M98.3,50.4v4.3
					c-0.7,0.6-1.6,1.1-2.9,1.6c-1.2,0.5-2.6,0.7-4,0.7c-1.5,0-2.9-0.4-4.3-1c-1.2-0.6-2.2-1.6-3-3c-0.6-1.4-1-3.1-1-5.2
					c0-1.7,0.2-3.2,0.9-4.7c0.2-0.9,0.8-1.6,1.4-2.2c0.6-0.6,1.4-1.2,2.4-1.6c1-0.4,2.2-0.6,3.7-0.6c1.1,0,2.1,0.2,3.1,0.6
					c0.9,0.4,1.6,1,2.1,1.6c0.5,0.6,0.9,1.6,1.2,2.7l2.7-0.8c-0.4-1.5-1-2.7-1.7-3.8c-0.8-1-1.7-1.7-3.1-2.2s-2.9-0.7-4.6-0.7
					c-2.2,0-4.3,0.5-6.1,1.4c-1.7,0.9-3.1,2.4-4.1,4.3c-0.9,2-1.4,4.1-1.4,6.3s0.5,4.5,1.4,6.2c0.9,1.7,2.2,3.1,4.2,4.2
					c1.9,0.9,4,1.4,6.2,1.4c1.7,0,3.2-0.2,5-0.9c1.6-0.5,3.1-1.5,4.7-2.6v-8.6h-9.7v2.6h6.9V50.4z M121.4,28.6V16.3h-1.6v12.3H121.4
					z M118.7,56c0.6-1.2,1-2.9,1-5.1c0-2.6-0.7-4.7-2.1-6.2s-3.2-2.2-5.6-2.2c-2,0-3.8,0.6-5.2,1.9c-1.6,1.5-2.5,3.8-2.5,6.8
					c0,2.7,0.8,5,1.9,6.5c1.5,1.5,3.5,2.2,5.7,2.2c1.5,0,2.7-0.4,4.1-1C117.2,58.1,118,57.2,118.7,56z M169.5,56
					c-0.9-0.9-1.4-2.4-1.5-4.2h12.5c0-0.4,0-0.6,0-0.8c0-2.7-0.8-5-2.1-6.5c-1.4-1.5-3.1-2.2-5.5-2.2s-4.2,0.7-5.6,2.2
					c-1.4,1.6-2.1,3.8-2.1,6.6c0,2.6,0.7,4.8,2.1,6.3c1.4,1.5,3.5,2.2,5.8,2.2c2,0,3.6-0.5,4.8-1.4c1.2-0.9,2-2.2,2.5-4l-2.9-0.4
					c-0.4,1.2-1,2-1.7,2.6c-0.7,0.5-1.6,0.8-2.6,0.8C171.7,57.5,170.4,57,169.5,56z M220.9,52.8c-0.4,0.7-0.5,1.5-0.5,2.2
					c0,1.4,0.5,2.5,1.5,3.5c0.9,0.9,2.4,1.4,4.2,1.4c1.1,0,2.1-0.1,3.1-0.5c1-0.4,2-1,3-1.9c0.1,0.9,0.2,1.5,0.8,2h2.9
					c-0.4-0.6-0.6-1.2-0.7-2c-0.1-0.6-0.1-2.2-0.1-5v-3.8c0-1.2,0-2.1-0.1-2.6c-0.1-0.8-0.5-1.4-0.9-1.9c-0.5-0.5-1.1-0.9-2-1.2
					c-0.9-0.4-2-0.5-3.5-0.5s-2.6,0.2-3.8,0.6c-1.1,0.4-1.9,0.9-2.5,1.6s-1,1.7-1.2,2.9l2.7,0.4c0.2-1.2,0.7-2,1.4-2.5
					c0.6-0.5,1.5-0.7,2.9-0.7s2.4,0.4,3.1,1c0.5,0.4,0.7,1.2,0.7,2.4c0,0.1,0,0.4,0,0.7c-1.1,0.4-2.7,0.8-5.1,1
					c-1.1,0.1-2,0.2-2.5,0.4c-0.7,0.1-1.4,0.5-2,0.9C221.8,51.5,221.3,52.1,220.9,52.8z M214.2,36.5v23h2.7v-23H214.2z M136.7,56
					c0.6-1.2,1-2.9,1-5.1c0-2.6-0.7-4.7-2.1-6.2c-1.4-1.5-3.2-2.2-5.6-2.2c-2,0-3.8,0.6-5.2,1.9c-1.6,1.5-2.5,3.8-2.5,6.8
					c0,2.7,0.6,5,1.9,6.5c1.5,1.5,3.5,2.2,5.7,2.2c1.5,0,2.7-0.4,4.1-1C135.2,58.1,136,57.2,136.7,56z M107.6,17.8v10.9h1.6V17.8
					h4.1v-1.4h-9.7v1.4H107.6z M193.3,36.5v23h3v-9.3h6.1c3.1,0,5.5-0.6,6.7-2c1.2-1.2,1.9-3,1.9-5c0-1.1-0.2-2.1-0.7-3.1
					s-1.1-1.7-1.9-2.2c-0.7-0.5-1.6-0.9-2.7-1c-0.9-0.1-2-0.2-3.6-0.2h-8.8V36.5z M158.9,36.5v23h2.7v-23H158.9z M154.8,57.1V42.7
					h-2.6v2c-1.2-1.6-2.7-2.4-4.8-2.4c-1.4,0-2.6,0.4-3.8,1.1c-1.1,0.8-1.9,1.7-2.5,3.1c-0.6,1.4-0.9,2.7-0.9,4.5
					c0,2.2,0.6,4.3,1.9,6c1.2,1.6,3,2.5,5.3,2.5c1.7,0,3.2-0.8,4.6-2.1c0,1.9-0.1,3-0.2,3.7c-0.2,0.9-0.6,1.6-1.4,2.1
					c-0.8,0.5-1.7,0.8-3,0.8c-1.2,0-2.1-0.2-2.9-0.8c-0.6-0.4-0.9-1-1-1.9l-2.7-0.4c0,1.7,0.5,3,2,3.8c1.2,0.9,2.7,1.4,4.8,1.4
					c1.6,0,3-0.2,4.2-0.9c1.1-0.6,2-1.4,2.5-2.5C154.5,61.6,154.8,59.8,154.8,57.1z M163,26.1l-6.5-9.7h-1.6v12.3h1.5v-9.7l6.5,9.7
					h1.6V16.3H163V26.1z M16.4,0.3h236.4c9.1,0,16.5,7.4,16.5,16.5v48.5c0,9.2-7.4,16.5-16.5,16.5H16.4c-9.1,0-16.5-7.4-16.5-16.5
					V16.8C-0.1,7.7,7.3,0.3,16.4,0.3z M124.2,16.3v12.3h1.5v-9.7l6.5,9.7h1.6V16.3h-1.5v9.7l-6.5-9.7H124.2z M143.7,27.8
					c1,0.6,2,0.9,3.1,0.9c1.1,0,2.1-0.2,3-0.7c0.9-0.5,1.6-1.2,2.1-2.2c0.5-1,0.7-2.1,0.7-3.5c0-1.2-0.2-2.2-0.7-3.2
					c-0.5-1-1.2-1.7-2.1-2.2s-1.9-0.7-3-0.7c-1.7,0-3.1,0.6-4.3,1.7c-1.1,1.1-1.6,2.7-1.6,4.8c0,1.1,0.2,2.1,0.7,3
					C142.1,26.6,142.9,27.3,143.7,27.8z"/>
			</g>
			<g>
				<path fill="none" stroke="#FFFFFF" stroke-miterlimit="10" d="M91.5,50.4v-2.6h9.7v8.6c-1.5,1.1-3,2.1-4.7,2.6
					c-1.6,0.6-3.1,0.9-5,0.9c-2.2,0-4.3-0.5-6.2-1.4c-1.9-1-3.2-2.4-4.2-4.2c-0.9-1.7-1.4-4-1.4-6.2s0.5-4.3,1.4-6.3
					c0.9-1.9,2.2-3.5,4.1-4.3c1.7-0.9,3.8-1.4,6.1-1.4c1.6,0,3.1,0.2,4.6,0.7c1.4,0.5,2.4,1.2,3.1,2.2c0.7,1,1.4,2.2,1.7,3.8
					l-2.7,0.8c-0.4-1.1-0.7-2.1-1.2-2.7c-0.5-0.6-1.2-1.2-2.1-1.6c-1-0.4-2-0.6-3.1-0.6c-1.4,0-2.6,0.2-3.7,0.6
					c-1,0.4-1.7,1-2.4,1.6c-0.7,0.6-1.1,1.4-1.4,2.2c-0.6,1.4-0.9,2.9-0.9,4.7c0,2,0.4,3.8,1,5.2c0.8,1.4,1.7,2.4,3,3
					c1.4,0.6,2.7,1,4.3,1c1.2,0,2.6-0.2,4-0.7c1.2-0.5,2.1-1,2.9-1.6v-4.3h-6.9V50.4z"/>
				<path fill="none" stroke="#FFFFFF" stroke-miterlimit="10" d="M104.3,51.2c0-3,0.9-5.3,2.5-6.8c1.4-1.2,3.1-1.9,5.2-1.9
					c2.2,0,4.2,0.7,5.6,2.2s2.1,3.6,2.1,6.2c0,2.1-0.4,3.8-1,5.1c-0.6,1.2-1.5,2.1-2.7,2.9c-1.2,0.6-2.5,1-4.1,1
					c-2.2,0-4.2-0.8-5.7-2.2C105,56.1,104.3,54,104.3,51.2z"/>
				<path fill="none" stroke="#FFFFFF" stroke-miterlimit="10" d="M107.1,51.2c0,2.1,0.5,3.8,1.4,4.8c0.9,1,2.1,1.6,3.6,1.6
					s2.5-0.5,3.6-1.6c0.9-1,1.4-2.6,1.4-5c0-2-0.5-3.7-1.4-4.7c-0.9-1-2.1-1.6-3.6-1.6s-2.5,0.5-3.6,1.6
					C107.7,47.4,107.1,49,107.1,51.2z"/>
				<path fill="none" stroke="#FFFFFF" stroke-miterlimit="10" d="M122.3,51.2c0-3,0.9-5.3,2.5-6.8c1.4-1.2,3.1-1.9,5.2-1.9
					c2.2,0,4.2,0.7,5.6,2.2s2.1,3.6,2.1,6.2c0,2.1-0.4,3.8-1,5.1c-0.6,1.2-1.5,2.1-2.7,2.9c-1.2,0.6-2.5,1-4.1,1
					c-2.2,0-4.2-0.8-5.7-2.2C122.9,56.1,122.3,54,122.3,51.2z"/>
				<path fill="none" stroke="#FFFFFF" stroke-miterlimit="10" d="M125.1,51.2c0,2.1,0.5,3.8,1.4,4.8s2.1,1.6,3.6,1.6
					s2.5-0.5,3.6-1.6c0.9-1,1.4-2.6,1.4-5c0-2-0.5-3.7-1.4-4.7c-0.9-1-2.1-1.6-3.6-1.6s-2.5,0.5-3.6,1.6
					C125.5,47.4,125.1,49,125.1,51.2z"/>
				<path fill="none" stroke="#FFFFFF" stroke-miterlimit="10" d="M140.5,61l2.7,0.4c0.1,0.9,0.4,1.5,1,1.9c0.7,0.5,1.6,0.8,2.9,0.8
					c1.2,0,2.2-0.2,3-0.8c0.7-0.5,1.1-1.2,1.4-2.1c0.1-0.6,0.2-1.7,0.2-3.7c-1.2,1.4-2.7,2.1-4.6,2.1c-2.2,0-4.1-0.9-5.3-2.5
					s-1.9-3.7-1.9-6c0-1.6,0.2-3,0.9-4.5s1.4-2.4,2.5-3.1c1.1-0.7,2.4-1.1,3.8-1.1c2,0,3.6,0.7,4.8,2.4v-2h2.6v14.4
					c0,2.6-0.2,4.5-0.7,5.6c-0.5,1.1-1.4,1.9-2.5,2.5c-1.1,0.6-2.5,0.9-4.2,0.9c-2,0-3.6-0.5-4.8-1.4C141,63.9,140.5,62.7,140.5,61z
					"/>
				<path fill="none" stroke="#FFFFFF" stroke-miterlimit="10" d="M143,50.8c0,2.1,0.4,3.8,1.2,4.8c0.9,1,1.9,1.5,3.2,1.5
					c1.2,0,2.4-0.5,3.2-1.5c0.9-1,1.2-2.5,1.2-4.7c0-2-0.5-3.6-1.4-4.6c-0.9-1-2-1.5-3.2-1.5s-2.2,0.5-3.1,1.5
					C143.4,47.4,143,48.8,143,50.8z"/>
				<rect x="158.9" y="36.5" fill="none" stroke="#FFFFFF" stroke-miterlimit="10" width="2.7" height="23"/>
				<path fill="none" stroke="#FFFFFF" stroke-miterlimit="10" d="M177.5,54.1l2.9,0.4c-0.5,1.6-1.2,3-2.5,4
					c-1.2,0.9-2.7,1.4-4.8,1.4c-2.4,0-4.5-0.8-5.8-2.2c-1.4-1.5-2.1-3.7-2.1-6.3c0-2.7,0.8-5,2.1-6.6c1.4-1.5,3.2-2.2,5.6-2.2
					s4.1,0.7,5.5,2.2s2.1,3.7,2.1,6.5c0,0.1,0,0.4,0,0.8h-12.4c0.1,1.7,0.6,3.2,1.5,4.2c0.9,1,2.1,1.5,3.6,1.5c1,0,1.9-0.3,2.6-0.8
					C176.5,56.1,177.1,55.4,177.5,54.1z"/>
				<path fill="none" stroke="#FFFFFF" stroke-miterlimit="10" d="M168.2,49.5h9.3c-0.1-1.4-0.5-2.4-1-3.1c-0.9-1.1-2-1.6-3.6-1.6
					c-1.2,0-2.4,0.4-3.2,1.2C168.7,46.9,168.3,48.2,168.2,49.5z"/>
				<path fill="none" stroke="#FFFFFF" stroke-miterlimit="10" d="M193.3,59.6v-23h8.7c1.5,0,2.6,0.1,3.6,0.2c1.1,0.1,2,0.5,2.7,1
					c0.7,0.5,1.4,1.2,1.9,2.2c0.5,1,0.7,2,0.7,3.1c0,1.9-0.6,3.7-1.9,5c-1.2,1.4-3.6,2-6.7,2h-6.1v9.3h-2.9V59.6z"/>
				<path fill="none" stroke="#FFFFFF" stroke-miterlimit="10" d="M196.2,47.4h6c2,0,3.5-0.4,4.2-1.1c0.9-0.8,1.2-1.7,1.2-3
					c0-1-0.2-1.7-0.8-2.5c-0.5-0.6-1.1-1.1-1.9-1.4c-0.5-0.1-1.5-0.2-2.7-0.2h-6v8.3H196.2z"/>
				<rect x="214.2" y="36.5" fill="none" stroke="#FFFFFF" stroke-miterlimit="10" width="2.7" height="23"/>
				<path fill="none" stroke="#FFFFFF" stroke-miterlimit="10" d="M232.3,57.4c-1,0.9-2,1.5-3,1.9c-1,0.4-2,0.5-3.1,0.5
					c-1.7,0-3.2-0.5-4.2-1.4c-1-0.9-1.5-2-1.5-3.5c0-0.7,0.1-1.5,0.5-2.2c0.4-0.6,0.9-1.2,1.5-1.6s1.2-0.7,2-0.9
					c0.5-0.1,1.4-0.2,2.5-0.4c2.2-0.2,4-0.6,5.1-1c0-0.4,0-0.6,0-0.7c0-1.1-0.2-2-0.7-2.4c-0.8-0.6-1.7-1-3.1-1s-2.2,0.2-2.9,0.7
					c-0.6,0.5-1.1,1.2-1.4,2.5l-2.7-0.4c0.3-1.1,0.6-2.1,1.2-2.9c0.6-0.8,1.4-1.2,2.5-1.6c1.1-0.4,2.4-0.6,3.8-0.6
					c1.4,0,2.5,0.1,3.5,0.5c0.9,0.4,1.5,0.8,2,1.2c0.4,0.5,0.7,1.1,0.9,1.9c0.1,0.5,0.1,1.4,0.1,2.6v3.8c0,2.6,0,4.3,0.1,5
					c0.1,0.8,0.4,1.4,0.7,2H233C232.6,59,232.5,58.2,232.3,57.4z"/>
				<path fill="none" stroke="#FFFFFF" stroke-miterlimit="10" d="M232.1,51c-1,0.4-2.5,0.8-4.6,1c-1.1,0.1-2,0.4-2.4,0.5
					c-0.5,0.2-0.9,0.5-1.1,0.9s-0.4,0.9-0.4,1.4c0,0.8,0.2,1.4,0.9,1.9c0.7,0.5,1.4,0.8,2.5,0.8c1.1,0,2-0.3,2.9-0.8
					c0.9-0.5,1.5-1.1,1.9-1.9c0.2-0.6,0.5-1.5,0.5-2.7v-1h-0.3V51z"/>
				<path fill="none" stroke="#FFFFFF" stroke-miterlimit="10" d="M239.2,65.9l-0.3-2.6c0.6,0.1,1.1,0.3,1.6,0.3
					c0.6,0,1.1-0.1,1.5-0.3c0.4-0.2,0.6-0.5,0.9-0.9c0.1-0.2,0.5-1,0.9-2.1c0-0.1,0.1-0.4,0.2-0.6l-6.3-16.6h3l3.5,9.6
					c0.5,1.2,0.9,2.5,1.2,4c0.4-1.2,0.7-2.5,1.1-3.8l3.6-9.7h2.7L246.6,60c-0.6,1.7-1.2,3-1.6,3.8c-0.5,0.9-1.1,1.6-1.7,2
					c-0.6,0.4-1.4,0.6-2.2,0.6C240.4,66.3,239.9,66.2,239.2,65.9z"/>
			</g>
		</g>
	</g>
</g>
</svg>
